<svg xmlns="http://www.w3.org/2000/svg" viewBox="0 0 704 704" fill="none" shape-rendering="auto" width="150" height="150"><mask id="viewboxMask"><rect width="704" height="704" rx="0" ry="0" x="0" y="0" fill="#fff" /></mask><g mask="url(#viewboxMask)">
    <linearGradient id="linear-gradient" x1="0%" y1="0%" x2="100%" y2="100%">
      <stop stop-color="hsl(111deg 66% 83%)" />
      <stop offset="1" stop-color="hsl(63deg 60% 75%)"/>
    </linearGradient>
    <rect xmlns="http://www.w3.org/2000/svg" fill="url(#linear-gradient)" width="704" height="704" x="0" y="0"/> <g transform="translate(-35.2 0)"><g transform="translate(70.4 70.4) scale(0.8)"><g fill-rule="evenodd" clip-rule="evenodd"><path d="M705.3 1074a2351.1 2351.1 0 0 1-15.6-101c-1-7.7-2.5-16.4 2.7-22 7.3-8 14-14.8 14.8-26.2.8-10.7-2.8-22.4-5-32.8a809.4 809.4 0 0 0-17.3-64.7c-6.6-21.7-13.9-43.2-21.3-64.6-6.9-20-13.5-40.3-22.5-59.5-17-36.5-46-63.5-81.6-81.6-9-4.5-27-20.5-36.3-24-8.5-3.4-8.5 6.3-16.9 2.6-6.7-2.9-13-6.7-16.7-13.2-4-7-14.3-16.9-15.9-25-3.3-17.4.3-32.2-12-45.3a90 90 0 0 0-41.1-23.8c-33.7-9.3-78.5-2.8-98.8 28.5-9.7 14.9-13 33-26.2 45.1-11.4 10.7-8.8 18-23.6 23.4-.9.3-23.6-4.5-24.4-4.2-16.2-3.5-31.7 6.2-46.5 11.8a325.4 325.4 0 0 0-63 32.3 399.2 399.2 0 0 0-102.3 98.5 482.5 482.5 0 0 0-76.4 161c-1.7 6.4-3.5 13-1.5 19.4 1.7 5.3 5.4 9.2 9.8 12.4 6 4.3 18 7 17.7 15.7-.1 6.6-2.4 13.5-3.5 20-1.3 7.7-2.3 15.5-3.4 23.2-4.8 35.4-8.6 71-10.3 106.6a920 920 0 0 0-.5 106c.1 2.3.8 4.5 2 6.2-1 .4-1.2 2.4.1 2.7l2.7.5a12 12 0 0 0 7 2.4l5.5.2c19.3 4 38.6 7.9 58.1 10.8 23.8 3.5 47.6 6.3 71.5 8.7 49.2 4.8 98 3.2 147.1.6a1877 1877 0 0 1 147.4-2c49.2 1.4 98.4 3.5 147.6 4.4 55 1 110-.5 164.8-5 7.5-.5 12.2-6.5 10.7-14-8.9-44.7-19-89.1-27-134Z" fill="#fce5d3"/><path d="m201 597.5 1.2-.4c14.5-5.7 29.6-14.8 45.4-11.4.5-.2 10.8 1.9 17.9 3.2l-6.7 7L247 598c40.7 67.1 88.8 100.7 144.3 100.7 55.5 0 97.7-33.6 126.4-100.7l4-1c.4 0 1 .2 1.5.4 9.3 3.6 27.4 19.6 36.3 24.1 35.6 18 64.5 45 81.6 81.6 8.7 18.6 15.2 38 21.8 57.5l.7 2c7.4 21.4 14.7 43 21.3 64.6 6.3 20.4 12 41 16.6 61.8l.7 2.9c2.2 10.4 5.8 22 5 32.8a29 29 0 0 1-3 10.7l-80.4 29 38.4 261.3c-35.1 1.5-70.3 2-105.5 1.3-49.2-.9-98.4-3-147.6-4.3-47.7-1.2-95.3-.7-143 1.7l-12 .6a946.3 946.3 0 0 1-139.5-1l-3.1-.3v-38.3l16.3-212.9-83-15.6-81.3-39.5a21.7 21.7 0 0 1-5.6-8.8c-1.9-6-.5-12 1-18l.5-1.3a492.8 492.8 0 0 1 76.4-161A399.3 399.3 0 0 1 138 629.7c19.8-13 40.9-23.9 63-32.3Z" fill="#f4f4f5"/><path d="M232.2 584.6c5.1-.3 10.3.6 15.4 1 .4.1.6.8 0 .9-9 1.9-18 4.5-26.9 7.1l-3.8 1.2c-10 3-19.8 6-29.6 10-19.4 7.9-37.8 18.5-54.8 30.8C67.2 682.8 20 754.3-9.9 828.3a526 526 0 0 0-24.3 77c-.4 1.6-2 5.4-1 7 .7 1.3 3.6 2.1 5 2.9l4.5 2.3 25.2 12.9 2.3 1.1c38 18.6 78.4 34.4 121 35.5l.4-3.7a342 342 0 0 1 9.9-60c.3-1 1.6-.6 1.7.3 3 23.1 2 46.4 1 69.7-1.8 41-4.3 82.2-6.5 123.3-1.2 20.6-2.6 41-3.9 61.7-1.3 20.5-1.7 41.6-4.7 62-.6 4.6-6 7-10 6.6-4.4-.5-7.9-4.5-8-9 0-11.9 1.5-24 2.4-35.8l2.5-33.8c3.1-41.1 6.8-82.2 10.2-123.3a4771 4771 0 0 1 3.8-43.7C76.4 979.8 34.2 963-6.1 943.5c-.6 13.2-2 26.5-3.4 39.6-3.8 36.8-7.1 73.6-9.6 110.5a2254.2 2254.2 0 0 0-4.2 92.7l-.2 7c0 4.4-.5 8.5-4.3 11.7-3.7 3.3-8.9 3.5-12.6 0-5-4.6-4.2-10.9-4-17.1a1675.6 1675.6 0 0 1 1.8-47.2 1321 1321 0 0 1 10.5-109.5l2-14c3.5-26 7.5-52.7 15.5-77.9-3.1-1.5-6.2-3-9.3-4.7-5.5-2.7-11.2-5.4-16.6-8.4-4.2-2.5-7.9-5.8-9-10.8-1.4-5.5.6-11.5 2-16.9v-.4a502 502 0 0 1 26.6-80 523.2 523.2 0 0 1 67.8-117 353.8 353.8 0 0 1 88.7-83.3 239 239 0 0 1 53.8-25.7 142.6 142.6 0 0 1 42.8-7.5Zm90.1-66c6-6.5 18.1.2 15.2 8.8a108.2 108.2 0 0 1-34.7 52A79.4 79.4 0 0 1 247 598l1.7 2.4a321.1 321.1 0 0 0 46.1 52.6c36 31.2 84.8 48 132 36 37.1-9.4 69.8-38.8 79.4-76.2-1.3.6-3 .9-4.8.5-7.7-1.7-15.3-9.8-20.3-15.6-5.3-6.3-9.5-13-12.6-20.7-5.6-14-7.4-32.1.3-45.7 1-1.7 3-.7 3.3 1l.3 2.5c1.5 12.7 3.3 25 9.3 36.6a76 76 0 0 0 18.2 23.1c2.6 2 5.8 3.6 8.1 6l.5.4c.6-5 4.1-7.3 7.6-7.2 3.3.2 7.3 1.6 8.8 2.3l.1.1a341 341 0 0 1 65.1 42 259 259 0 0 1 88.4 129c7.5 25.3 11.8 51.4 16.3 77.4l2.8 16c4.2 23.9 8.9 48.4 18.4 70.7 2.5 5.7.6 11.1-5.5 13.4A1493 1493 0 0 1 688 953c3.7 16 6 32.5 8.7 48.5 6 34.1 13.2 68 19.4 102 3.2 17.5 6.1 35 9.3 52.3l4.7 25.2 2.4 13.6.1.7c.5 2.4 1 4.9.4 7.3-.8 2.7-2.9 4.6-4.8 6.6-1.6 1.6-3.8 1.6-5.7.7l-.7-.3c-3.4-1.6-6-3.2-7.3-7-.7-2.5-1-5.2-1.5-7.7a3535.6 3535.6 0 0 1-7.8-43.6l-1.6-9.1c-5.2-31.4-10.2-62.9-12.8-94.5-1-14-2.3-28.1-3.5-42.2l-.9-10.5c-1.1-13.3-2.5-27-2.7-40.5l-4.5 1.6L657 964c-5.5 2-12.5 6-18.4 5.2-2.9-.3-5-1.2-6.8-2.9 2 28.8 4.8 57.4 8.5 86a1965.7 1965.7 0 0 0 22 135c.6 3.2 1.4 6.4 1.9 9.6.5 3.7-.5 5.9-2.5 9-1.7 2.4-5 3.7-7.8 2-3.6-2.3-5.5-4.3-6.5-8.4-1-3.7-1.6-7.6-2.3-11.4a1654.2 1654.2 0 0 1-11.4-65.2c-7.8-52-12.7-104.4-15.2-156.8a1388 1388 0 0 1-1.4-77.8c0-13.3.5-26.6 1.4-39.9 1-13.4 3-26.5 4.8-39.8 0-.5.7-.5.7 0 .8 14.9 2.1 29.8 2.8 44.7.6 14.3.9 28.5 1.4 42.8.6 18.7 1.5 37.5 2.7 56.2a9.6 9.6 0 0 1 8.5-3.1c4.7-1 9.7-3.4 14.1-5l16.8-5.5 26.4-8.7a679 679 0 0 1-18-80.8l-2-12.3c-4-24.2-8.5-48.5-15.8-72a229.8 229.8 0 0 0-34.8-68.2 370.2 370.2 0 0 0-52.7-55.3C557 627 539.7 614 523 600c.1.9.2 2 0 3-3.5 25.9-17 50-35.8 67.9-37.7 36-93.6 43.4-142 26.5-46.7-16.3-88-55-102.6-102.8-.3-.8.8-1 1.3-.5l2.4 3.3c0-.4.2-.9.7-1a129 129 0 0 0 46.6-29.2 100.2 100.2 0 0 0 21.3-33.3l.4-1c1.7-5 3.2-10.2 7-14.2Z" fill="#000"/></g><g transform="matrix(.99789 0 0 1 156 62)"><g fill-rule="evenodd" clip-rule="evenodd"><path d="M398.9 192C363.7 99.6 300.3 31.9 193.3 74.4c-3-2-7-2.6-10.9-.2A277.4 277.4 0 0 0 64.1 235.4a90.6 90.6 0 0 0-31.4 11.8c-20.9 13-35 33.9-48 54.2-4 6-.4 16.1 7 17.5 3.3.6 6.5 1 9.7 1a41 41 0 0 1-3.1 8c-4.7 9.1 4.2 18.7 12.5 16.2 1 .5 1.9 1 2.9 1.2 0 5.1 2.7 12 8 13 8.3 1.8 19.5-4.6 17.5-14 2.6.4 5 .5 7.6.2.2 4.9.1 10 .8 14.5A34 34 0 0 0 91.4 388c1.2 6.6 2.7 16 9.2 19.6 7.7 21.4 20.9 45.8 42.5 55.6-2 5-1 11 4.9 14.2 39.5 22.6 87 30.2 131.7 21.8 17.8-1 35.2-5 52-13.7a243.4 243.4 0 0 0 34.3-22.4c11-8.3 22.6-16.3 31.3-27a87 87 0 0 0 16.8-39.6A344.3 344.3 0 0 0 399 203.4c-29.6-77.7 29.5 66.3 0-11.3Z" fill="#fce5d3"/><path d="M32.6 243.4c32.8-19.3 74.7-14.3 94.4 15.7a56 56 0 0 1 7.4 17.5l.3 1 .3 1.2c.8 3.8 1.4 7.4 2.2 13.5l.8 7 .3 1.8a98 98 0 0 0 2.6 14.3l.2.8 1.3 4.4-4.9 1.8c-9.3 3.4-11.3 3.7-16.7 1-4.3-2.3-6.5-5.3-9.4-11.3l-.4-.9-1-2-.5-1c-1.9-3.8-3.4-7.9-5.6-9.4-3-2-12.2-2.8-18.6-2h-.4l-.3.1-.4.1a50.4 50.4 0 0 0-27.3 20.6 49.6 49.6 0 0 0-8.6 26.6v.6l-.2 5-10.5-.2.1-2-.1.4c-3.3 7-11.7 11.6-18.6 7l-.3-.2-.2-.2c-5.9-4.3-6.6-13-1.8-18.4l.2-.2.3-.2H17a10 10 0 0 0-5.1 2.9l-.5.4-1 1.1-1 1.1-.5.5a22 22 0 0 1-1.8 1.6l-1 .5c-1 .4-2 .6-3.3.3a5 5 0 0 1-3.4-2.8c-.3-.5-.4-1-.5-1.4l-.2-1.6v-3.5l.2-2.3c.4-7.6 2.4-15.2 5.9-22.3l.3-.7.2-.2-.4.5c-2.3 3-4.6 5.2-7.5 6.6l-.3.2-.4.2c-4 1.7-8 1-10.3-2.2a11.4 11.4 0 0 1-1.8-8.2c.7-6 3-11.4 7.6-19.3l.7-1.1 2.5-4.3a107.4 107.4 0 0 1 37-38.4Z" fill="#a55728"/><path d="M228.8 56.3a145 145 0 0 1 53.5 7.2A185.4 185.4 0 0 1 401.9 181c11.5 33.6 13.3 69.6 16.5 104.7 1.6 17.8 4.3 35.2 7.2 52.8l.4 2.8c2.7 17.1 4.3 34.4.5 51.5-6.3 28.5-25.2 52.6-47.6 70.4-46 36.6-117.8 59-171.4 25.3-8.3-5.2-.5-18.6 7.6-13.1a83.2 83.2 0 0 0 18.2 9.4c27.1 9.7 56.8 6.3 83.6-2.7a180 180 0 0 0 71-43.9c20.5-21 31.8-46.9 30.2-76.4-1-17.5-5-34.8-7.2-52.2-2-15.4-3.2-31-4.5-46.4l-.5-5.6c-2.9-31.5-7-64-21.4-92.6-12-24-29.7-45.5-51-62a170.4 170.4 0 0 0-76.7-34c-32.8-5.4-64.2 4.3-91.6 22.3a216.8 216.8 0 0 0-61.1 61.5A254.6 254.6 0 0 0 84 189.9c-5.4 12.1-9 24.8-13.4 37.3a68.1 68.1 0 0 1 58.4 27.7c13.7 18.8 10 41.9 15.3 63.3.4 1.7-.3 3.3-1.7 4.2-8 5.2-19 5.4-26.7-.5a20.4 20.4 0 0 1-7.3-22.4c.4-1 2-.9 2 .3.5 13.7 13.2 24.3 25.7 17.7-5.4-18.4-2.5-39-13.5-55.7-19.4-29.5-59.5-30.7-87.7-14-14.9 8.7-26.6 21.8-35.4 36.5l-2.5 4.3a50 50 0 0 0-7.6 18.5c-.4 3.6 1 7 5.1 5.2 3.4-1.5 6-5 8-8 3.4-5 11.3-.6 8.4 4.8v.2A54.1 54.1 0 0 0 4 332.9l-.2 2.3c0 1.7 0 4 .3 4.1.4.1 3.4-3.3 3.8-3.8 2.4-2.2 4.9-4.1 8.2-4.7 4.3-.8 8.7 4.6 5 8.1l-.2.2c-3.4 2.9-3.2 8.7.5 11.5 5.3 3.8 11.7-2.5 12.5-7.7v-.2c.7-5.6 8.5-5.8 9 0 .9 12.7-14.2 23.2-25.6 16.9a17.2 17.2 0 0 1-8.3-12c-1.5.7-3 1.2-4.7 1.3-5.3.5-9.1-3.3-10-8.3-1-6-.4-12.2 1.1-18.3-2.9.7-6 .4-9-1.4-9.3-5.4-6.7-17.3-3.1-25.4 15-34.4 46-65.7 84.6-68.2.2-6 1-11.8 2.4-17.9A207.8 207.8 0 0 1 181.8 69a134.3 134.3 0 0 1 47-12.7ZM83 294h.5c6-1.4 21.8-3 20 7.2-.2.5-.9.4-1 0-1.9-6.4-14.5-1.3-18.2.3a53.4 53.4 0 0 0-14.3 8.8c-9.2 8-15.3 19-16.2 31.2-1 12 2.6 25 11.2 33.7 4.3 4.2 9.7 7.1 15.8 7.3 5.5.2 11.5-4 16.6-1.5 1 .5 1.8 1.8 1.7 3a7.4 7.4 0 0 1-2.5 5c8.4 15.3 15.3 31.7 26.1 45.7 5.4 7 11.6 13.5 18.5 19 3.3 2.7 7 5 10.6 7 4.4 2.4 8.1 4 11.2 8 2.6 3.4 0 10-4.3 10.7-10.3 1.4-20.3-7-27.8-13.1a100 100 0 0 1-19.4-22 132.5 132.5 0 0 1-20.1-52.6 33 33 0 0 1-30-5.8c-21.2-16.4-23.6-50-8.6-71.3A52 52 0 0 1 83 294Zm.1 39.1c5-.4 9.8.4 14.5 2l1.9.7c4 1.5 8.3 3.2 11.2 6.3 4.5 4.6 0 12.6-6.3 10.8-7-2-12.7-7.9-19.7-10.3a21 21 0 0 0-18.9 1.9c-.7.5-1.7-.5-1.2-1.2 4.2-6.5 11-9.5 18.5-10.2Z" fill="#000"/></g></g><g transform="translate(315 248)"><path fill-rule="evenodd" clip-rule="evenodd" d="M146.6 241a40.7 40.7 0 0 1-17.1-13.2c-1.5-2-2-4.2-1.6-6.2a8.9 8.9 0 0 1 9.6-7.2c1.9.3 3.7 1.3 5.2 3.5l.3.4a27 27 0 0 0 10 8.3c3.6 1.8 7.8 2.6 12.1 2.1 8.3-1 14-5.4 20-11.4l2.2-2.3c.5-.8 1.1-1.2 1.9-1.5a4 4 0 0 1 4.6 1.6c.4.7.7 1.5.6 2.5a25.7 25.7 0 0 1-8.5 16.2c-5.1 4.9-12 8.2-18.4 9.4-7.1 1.3-14.4.4-21-2.3Zm24.2-96.6c7.6 4.6 19 15.3 11 26.6-9.6 10-23.4-1.4-30.2-6.6-6.3-4-13.3 6.3-7.5 11 49 36.3 69-29.8 30.5-36.4-4.2-.8-5.8 4-3.8 5.4ZM83 102c.8-10.3 16.6-12.7 18.1-2.4a42 42 0 0 1-4.3 25.9c-4 7.9-14 4.2-14.7-3-1-9.7.3-14 .9-20.5Zm120-4.5c2.2-3 5.4-4.9 9.2-3.8 11.9 3.5 8.4 20.4 4.2 28.6-2.3 4.4-9.6 5.6-12.9 1.6-5.4-6.4-8-19.1-1.1-25.5l.6-1ZM96.6 56.8l1.9-.3c5.8-1 13-2 17.1 2.7 2.2 2.5 3 7 0 9.4-5.1 4.2-10.8 2.6-17 3-5.1.2-10 1-14.9 2.5C73 77 64.2 82.8 55 88.9c-1.2.8-2.4-.7-1.9-1.8a59.3 59.3 0 0 1 26-24.1 64 64 0 0 1 17.5-6.2Zm95.6-4.6 1.4.3c15.7 3.2 36 9.8 43.4 25.1.3 2.2 0 2.7-.3 3-.2.3-.4.7-1.4 1A36 36 0 0 1 226 78l-2.8-1.4a77.7 77.7 0 0 0-10.1-4.3c-7.5-2.4-15.1-4.1-23-5a9.4 9.4 0 0 1-4.5-1.8 7 7 0 0 1-2.6-4 7 7 0 0 1 .8-5.8 7.4 7.4 0 0 1 3.6-3.1c1.5-.6 3.2-.8 4.9-.4Z" fill="#000"/></g><g transform="translate(279 400)"></g><g transform="translate(179 343)"></g><g transform="translate(203 303)"></g></g></g></g></svg>