<svg xmlns="http://www.w3.org/2000/svg" viewBox="0 0 704 704" fill="none" shape-rendering="auto" width="150" height="150"><mask id="viewboxMask"><rect width="704" height="704" rx="0" ry="0" x="0" y="0" fill="#fff" /></mask><g mask="url(#viewboxMask)">
    <linearGradient id="linear-gradient" x1="0%" y1="0%" x2="100%" y2="100%">
      <stop stop-color="hsl(279deg 72% 78%)" />
      <stop offset="1" stop-color="hsl(243deg 69% 80%)"/>
    </linearGradient>
    <rect xmlns="http://www.w3.org/2000/svg" fill="url(#linear-gradient)" width="704" height="704" x="0" y="0"/> <g transform="translate(-35.2 0)"><g transform="translate(70.4 70.4) scale(0.8)"><g fill-rule="evenodd" clip-rule="evenodd"><path d="M705.3 1074a2351.1 2351.1 0 0 1-15.6-101c-1-7.7-2.5-16.4 2.7-22 7.3-8 14-14.8 14.8-26.2.8-10.7-2.8-22.4-5-32.8a809.4 809.4 0 0 0-17.3-64.7c-6.6-21.7-13.9-43.2-21.3-64.6-6.9-20-13.5-40.3-22.5-59.5-17-36.5-46-63.5-81.6-81.6-9-4.5-27-20.5-36.3-24-8.5-3.4-8.5 6.3-16.9 2.6-6.7-2.9-13-6.7-16.7-13.2-4-7-14.3-16.9-15.9-25-3.3-17.4.3-32.2-12-45.3a90 90 0 0 0-41.1-23.8c-33.7-9.3-78.5-2.8-98.8 28.5-9.7 14.9-13 33-26.2 45.1-11.4 10.7-8.8 18-23.6 23.4-.9.3-23.6-4.5-24.4-4.2-16.2-3.5-31.7 6.2-46.5 11.8a325.4 325.4 0 0 0-63 32.3 399.2 399.2 0 0 0-102.3 98.5 482.5 482.5 0 0 0-76.4 161c-1.7 6.4-3.5 13-1.5 19.4 1.7 5.3 5.4 9.2 9.8 12.4 6 4.3 18 7 17.7 15.7-.1 6.6-2.4 13.5-3.5 20-1.3 7.7-2.3 15.5-3.4 23.2-4.8 35.4-8.6 71-10.3 106.6a920 920 0 0 0-.5 106c.1 2.3.8 4.5 2 6.2-1 .4-1.2 2.4.1 2.7l2.7.5a12 12 0 0 0 7 2.4l5.5.2c19.3 4 38.6 7.9 58.1 10.8 23.8 3.5 47.6 6.3 71.5 8.7 49.2 4.8 98 3.2 147.1.6a1877 1877 0 0 1 147.4-2c49.2 1.4 98.4 3.5 147.6 4.4 55 1 110-.5 164.8-5 7.5-.5 12.2-6.5 10.7-14-8.9-44.7-19-89.1-27-134Z" fill="#fce5d3"/><path d="m201 597.5 1.2-.4c14.5-5.7 29.6-14.8 45.4-11.4.5-.2 10.8 1.9 17.9 3.2l-6.7 7L247 598c40.7 67.1 88.8 100.7 144.3 100.7 55.5 0 97.7-33.6 126.4-100.7l4-1c.4 0 1 .2 1.5.4 9.3 3.6 27.4 19.6 36.3 24.1 35.6 18 64.5 45 81.6 81.6 8.7 18.6 15.2 38 21.8 57.5l.7 2c7.4 21.4 14.7 43 21.3 64.6 6.3 20.4 12 41 16.6 61.8l.7 2.9c2.2 10.4 5.8 22 5 32.8a29 29 0 0 1-3 10.7l-80.4 29 38.4 261.3c-35.1 1.5-70.3 2-105.5 1.3-49.2-.9-98.4-3-147.6-4.3-47.7-1.2-95.3-.7-143 1.7l-12 .6a946.3 946.3 0 0 1-139.5-1l-3.1-.3v-38.3l16.3-212.9-83-15.6-81.3-39.5a21.7 21.7 0 0 1-5.6-8.8c-1.9-6-.5-12 1-18l.5-1.3a492.8 492.8 0 0 1 76.4-161A399.3 399.3 0 0 1 138 629.7c19.8-13 40.9-23.9 63-32.3Z" fill="#f4f4f5"/><path d="M232.2 584.6c5.1-.3 10.3.6 15.4 1 .4.1.6.8 0 .9-9 1.9-18 4.5-26.9 7.1l-3.8 1.2c-10 3-19.8 6-29.6 10-19.4 7.9-37.8 18.5-54.8 30.8C67.2 682.8 20 754.3-9.9 828.3a526 526 0 0 0-24.3 77c-.4 1.6-2 5.4-1 7 .7 1.3 3.6 2.1 5 2.9l4.5 2.3 25.2 12.9 2.3 1.1c38 18.6 78.4 34.4 121 35.5l.4-3.7a342 342 0 0 1 9.9-60c.3-1 1.6-.6 1.7.3 3 23.1 2 46.4 1 69.7-1.8 41-4.3 82.2-6.5 123.3-1.2 20.6-2.6 41-3.9 61.7-1.3 20.5-1.7 41.6-4.7 62-.6 4.6-6 7-10 6.6-4.4-.5-7.9-4.5-8-9 0-11.9 1.5-24 2.4-35.8l2.5-33.8c3.1-41.1 6.8-82.2 10.2-123.3a4771 4771 0 0 1 3.8-43.7C76.4 979.8 34.2 963-6.1 943.5c-.6 13.2-2 26.5-3.4 39.6-3.8 36.8-7.1 73.6-9.6 110.5a2254.2 2254.2 0 0 0-4.2 92.7l-.2 7c0 4.4-.5 8.5-4.3 11.7-3.7 3.3-8.9 3.5-12.6 0-5-4.6-4.2-10.9-4-17.1a1675.6 1675.6 0 0 1 1.8-47.2 1321 1321 0 0 1 10.5-109.5l2-14c3.5-26 7.5-52.7 15.5-77.9-3.1-1.5-6.2-3-9.3-4.7-5.5-2.7-11.2-5.4-16.6-8.4-4.2-2.5-7.9-5.8-9-10.8-1.4-5.5.6-11.5 2-16.9v-.4a502 502 0 0 1 26.6-80 523.2 523.2 0 0 1 67.8-117 353.8 353.8 0 0 1 88.7-83.3 239 239 0 0 1 53.8-25.7 142.6 142.6 0 0 1 42.8-7.5Zm90.1-66c6-6.5 18.1.2 15.2 8.8a108.2 108.2 0 0 1-34.7 52A79.4 79.4 0 0 1 247 598l1.7 2.4a321.1 321.1 0 0 0 46.1 52.6c36 31.2 84.8 48 132 36 37.1-9.4 69.8-38.8 79.4-76.2-1.3.6-3 .9-4.8.5-7.7-1.7-15.3-9.8-20.3-15.6-5.3-6.3-9.5-13-12.6-20.7-5.6-14-7.4-32.1.3-45.7 1-1.7 3-.7 3.3 1l.3 2.5c1.5 12.7 3.3 25 9.3 36.6a76 76 0 0 0 18.2 23.1c2.6 2 5.8 3.6 8.1 6l.5.4c.6-5 4.1-7.3 7.6-7.2 3.3.2 7.3 1.6 8.8 2.3l.1.1a341 341 0 0 1 65.1 42 259 259 0 0 1 88.4 129c7.5 25.3 11.8 51.4 16.3 77.4l2.8 16c4.2 23.9 8.9 48.4 18.4 70.7 2.5 5.7.6 11.1-5.5 13.4A1493 1493 0 0 1 688 953c3.7 16 6 32.5 8.7 48.5 6 34.1 13.2 68 19.4 102 3.2 17.5 6.1 35 9.3 52.3l4.7 25.2 2.4 13.6.1.7c.5 2.4 1 4.9.4 7.3-.8 2.7-2.9 4.6-4.8 6.6-1.6 1.6-3.8 1.6-5.7.7l-.7-.3c-3.4-1.6-6-3.2-7.3-7-.7-2.5-1-5.2-1.5-7.7a3535.6 3535.6 0 0 1-7.8-43.6l-1.6-9.1c-5.2-31.4-10.2-62.9-12.8-94.5-1-14-2.3-28.1-3.5-42.2l-.9-10.5c-1.1-13.3-2.5-27-2.7-40.5l-4.5 1.6L657 964c-5.5 2-12.5 6-18.4 5.2-2.9-.3-5-1.2-6.8-2.9 2 28.8 4.8 57.4 8.5 86a1965.7 1965.7 0 0 0 22 135c.6 3.2 1.4 6.4 1.9 9.6.5 3.7-.5 5.9-2.5 9-1.7 2.4-5 3.7-7.8 2-3.6-2.3-5.5-4.3-6.5-8.4-1-3.7-1.6-7.6-2.3-11.4a1654.2 1654.2 0 0 1-11.4-65.2c-7.8-52-12.7-104.4-15.2-156.8a1388 1388 0 0 1-1.4-77.8c0-13.3.5-26.6 1.4-39.9 1-13.4 3-26.5 4.8-39.8 0-.5.7-.5.7 0 .8 14.9 2.1 29.8 2.8 44.7.6 14.3.9 28.5 1.4 42.8.6 18.7 1.5 37.5 2.7 56.2a9.6 9.6 0 0 1 8.5-3.1c4.7-1 9.7-3.4 14.1-5l16.8-5.5 26.4-8.7a679 679 0 0 1-18-80.8l-2-12.3c-4-24.2-8.5-48.5-15.8-72a229.8 229.8 0 0 0-34.8-68.2 370.2 370.2 0 0 0-52.7-55.3C557 627 539.7 614 523 600c.1.9.2 2 0 3-3.5 25.9-17 50-35.8 67.9-37.7 36-93.6 43.4-142 26.5-46.7-16.3-88-55-102.6-102.8-.3-.8.8-1 1.3-.5l2.4 3.3c0-.4.2-.9.7-1a129 129 0 0 0 46.6-29.2 100.2 100.2 0 0 0 21.3-33.3l.4-1c1.7-5 3.2-10.2 7-14.2Z" fill="#000"/></g><g transform="matrix(.99789 0 0 1 156 62)"><g fill-rule="evenodd" clip-rule="evenodd"><path d="M407.9 144.5c-2.3-5.6-6.2-12.7-12.7-13-5.1-15.5-17.8-31.3-35.3-30.9-51.6-52.7-116.5-50.2-184.3-39-35.8 6.6-72.1 19.6-98.8 45.2-32 30.2-44.5 83-19.4 121.1-21.7 11.6-22 39.1-12.8 59-11.2 7.7-11.8 26.4.7 32.2-.7 2.8-.2 5.6 1 8-6.1 5.2-14.2 9-21 12.3a9.9 9.9 0 0 0-5.3 6.5c-22 14.4-76.6 49.6-76 77.6-.3 14.6 10.5 24.2 23.7 28-7.8 15.7-13.8 34-6.3 50.9 2 5 17.6 20 18.4 20.3 1.4 1.2 23.6-9 34.5-14.2 2 13.6 16.7 20.8 29.3 16.1 12-3.6 19.2-13.7 26.8-22.9 10 21.8 39.4 22 58.4 12.7 17-8 30-22.4 37.3-39.8a205 205 0 0 0 125 16.8c2.6 4.7 8.5 7.9 13.8 6 22.2-6.6 46.7-7 65.5-22.3 39.2-28 42.5-80 39.8-124.1-2.5-44-.3-88.5-8.4-132 3.5-13 9.3-24.3 14.7-36.3 5.8-12.7 5.6-31.5-8.6-38.2Z" fill="#fce5d3"/><path d="M230 57h1.5a277.3 277.3 0 0 1 50.2 5.2l2.4.5 12.8 2.8 11 2.6a342 342 0 0 0 13.5 3h.5s29.2 14 38.7 23.3l1 .9.3.4 4.1.1v.5c4.2.7 7.9 2.8 11.3 6l.4.4.3.4a59 59 0 0 1 7.7 10.2l.7 1 1.2 2 1 1.5 1.8 3 .6.9.4.7 10.6 6.2c1.5.9 2.9 2 4.2 3.4l.3.4.3.4 3 3.4-.7.6.3.4.5.7.5.7.5.7.2.3.3.7.2.3v.3l.5.2.7 1.3a48.7 48.7 0 0 1 3.8 38.2c-1.1 3.4-2.6 6-5.2 9.7l-2.1 2.8-.4.6-.5.7-.3.3c-3.3 4.9-32 14-49.5 14.5h-1.2a91 91 0 0 1-25.3-4.5l-1.6-.5-8-2.7-.7-.2-.7-.2c-1.8-.6-3-.9-4-1h-.2V201c0 3.7-2.2 6.4-5.7 8.2a31.4 31.4 0 0 1-8.7 2.4l-.6.1a195.6 195.6 0 0 1-26.1 1.6c-2.6-.1-4.5-.6-8.2-1.6l-1.8-.5-1-.3c-1.7-.5-2.7-.7-3.6-.7h-.5c-1.2 0-2 .2-2.7.8l-.5.4-5.4 4.5-1.8 1.5-.2.1a38.7 38.7 0 0 1-23 9.5H224.8a30 30 0 0 1-12.2-4l-1-.4-.7-.4-1.2-.6-3.7-2-2-1a26.4 26.4 0 0 0-4.3-2h-.2c-2 2-3.7 4.4-5.6 7.7l-.2.6-.4.7-2.6 5.2-.5 1c-2 3.7-3.5 6-5.5 8.2-2.9 3-6.4 4.8-10.7 5h-.9c-2 0-4.2-.2-6.5-.9l-.6-.1-.5-.2c-3.5-1-9-.4-13.3 2-4.7 2.4-7.3 6.2-7.2 11.1 0 2.5.4 5 .8 7.9l.2.8c.6 3.4 1.5 7 2.8 11.6l3 9.8.3 1.1.3 1.2 1.2 4.6c1.1 5.3 1.3 9.4.1 12.8-5.2 15-14.2 23.1-24.5 23.5h-.8c-8-.1-15.1-5.3-15-12 0-.7 0-1.3.3-2l.1-.2v-.3c-2.4-5.8-8-10-14.7-10.9h-.7l-1.1-.1h-.7c-8.9 0-17.6 5.8-24.4 15.4-1.5 2-2.8 4.2-4 6.5l-.4.8-1.9 4-1.3 3.7c-7 20.8-3.5 42.5 10.4 53.7l.4.4a33 33 0 0 0 19.3 7h1.1c2 0 4-.2 5.7-.7 1.5-.4 2.5-.9 3.2-1.5l.4-.4.1-.1 9.5 1.3a90 90 0 0 0 13.9 33l.4.8.9 1.3.8 1.3c9 13.7 18.9 25.2 29.8 34l.7.7 1 .8 1 .7c1.8 1.4 3.3 2.5 4.9 3.5l.3.3 3.6 2.2-1.6 4a83.9 83.9 0 0 1-16 24.4l-.5.7-4.6 4.7-3.6-4.5h-.4a22.4 22.4 0 0 0-6.2 4.7l-.3.3-.4.3-.5.5a37.5 37.5 0 0 1-26 11.6h-1.9A38 38 0 0 1 77 497.6c-.2-.5-.4-.7-.8-.8H76c-1 0-2.3.7-3 1.5l-.1.1-2.4 3.2-.9 1.2c-8.4 11-15.3 17.1-24.6 19l-2.3.2h-.8c-4 0-8.6-1.1-12.2-3.2-4.8-2.6-7.7-6.8-7.3-12v-.8c.4-2.7-1.8-4.2-3.5-2.9l-.1.1-.1.1A68 68 0 0 1-4.8 518l-.7.2-1.2.4a42.6 42.6 0 0 1-13.2 2.8c-3.5 0-6.4-1.2-8.4-3.6a16.2 16.2 0 0 1-3.1-6l-.2-.4-.3-1-.2-.7a61 61 0 0 1-.6-28.4c1.5-7.7 3.8-15.2 7.7-25.6l.8-2 1.5-4.1c.2-.4-.8-1.9-1.3-2H-26.7c-12.7 0-22.4-12.5-22.3-25.6 0-12.4 6.3-23 18.1-35.6l1-1 1.2-1.2 1-1.2A248 248 0 0 1 5 355l1-.7 1-.7c3.7-2.7 7.4-5 12.5-8.2l3-1.9 12-14.3 1-.5v-5l11.8.3c-3-1.5-5.5-3.4-7.5-5.7-6.6-7.9-5.7-18.8 2.3-24.2l.3-.1 3.4-2.1 2.8 2.4c2.4 2.1 5 3.5 7.6 4.2h.5l2 .5.5.7.2-.4v-.1l-.4-.4-.2-.4-4-4-1.3-1.2-1-1a34.6 34.6 0 0 1-11.8-25.4 36 36 0 0 1 20.9-32.4c.4-.2.7-1.7.2-2.6a103.9 103.9 0 0 1-9.4-74 108.2 108.2 0 0 1 40.1-59.4c35-27 83.3-40.8 134.6-41.3h3Z" fill="#724133"/><path d="M43.6 331.5c2.3-.6 3.6 2.5 1.6 3.8-12.4 7.9-25.3 15-37.3 23.6-11.5 8.1-22 17.5-31.9 27.5l-1 1.1c-9 9.2-18.8 20.8-19 34.3 0 10.5 8.1 22 19.4 20.6 4.3-.5 8.2 5 6.7 8.8l-1.6 4.1c-6.3 16.6-12.7 35.4-7.7 52.9l.2.6c1.2 4 2.5 7.5 7 7.5a62.8 62.8 0 0 0 35.2-16.6c5.8-5.4 13 0 12.3 6.8v.2c-1 7.6 11 11.2 16.6 10 10.9-2 18.7-13 24.8-21.3 3-4 10.2-5.6 12.8 0a33 33 0 0 0 28.4 19.6 32.6 32.6 0 0 0 24.2-10l.5-.5c2.7-2.9 4.6-4.4 8-6.3 3.5-1.8 8 .5 8 4.5-.1 5.3-1.7 8.7-5.3 12.5a48 48 0 0 1-35.4 14.8 48 48 0 0 1-35.5-18c-8.7 10.4-19.5 20-33.5 19.7a29.1 29.1 0 0 1-25-14.1A77.2 77.2 0 0 1-5.6 528l-.7.2c-11 3.2-23.6 4.4-30.7-6.5-6.7-10.2-7.1-24.4-5.6-36.2 1.3-10.4 4.6-20.4 8.3-30.2A33.7 33.7 0 0 1-56 431.7c-4.2-16.1 4-31.8 14.2-43.7 11-13 25-24 39-33.7a148 148 0 0 1 46.3-22.8Zm359.9-126.1c0-.5.7-.6.8-.1 4.8 35 7.6 70 10 105.4 1.1 17.8 2.5 35.7 4 53.6 1.3 17.1 3.7 34.7 3.1 52-.8 26.9-13.9 48.8-35.3 64.5a151.7 151.7 0 0 1-71.1 25.8 180.6 180.6 0 0 1-66.3-3.7l-3.2-.8c-5.8-1.5-12.4-3.5-13.2-10.4-.4-3.3 1.4-5.8 4.3-7.5 3.7-2.2 8-.9 11.8.1a172.4 172.4 0 0 0 63 5c24-2.6 49.5-10.4 68-26.5 8.1-7 15.1-15.6 18.8-25.8 4.8-13 4-27.3 4-41-.4-31.7-.1-63.5-.6-95.3-.4-31.9 0-63.5 1.9-95.3ZM161 56.8c28.2-7.2 56.8-9.1 85.7-7 27.3 2.1 58.4 8.2 80.6 25 1.1.8.5 2.4-.9 2.1-14.9-2.3-29.4-6.7-44.2-9.5A278.2 278.2 0 0 0 239 62c-49.1-1.6-103.8 9.5-143.4 40.1A103.4 103.4 0 0 0 57.2 159a98.9 98.9 0 0 0 9 70.3c1.6 3.1 1 8-2.5 9.6a31 31 0 0 0-18 27.8c0 5.7 2 11.3 5.2 16 3.4 5 8.5 8.5 12.3 13.2a5.2 5.2 0 0 1 .4 6.1c2.2 1 4.5 1.5 6.7 2.7 1.8 1 1.9 4 0 4.9-4.8 2.4-10-.2-13.2-4l-1.5-2.2a23 23 0 0 1-10.3-5.4c-5.8 3.5-6.6 11.1-1.6 17 2.5 3 6 4.8 9.7 6.2l.4.1c3.6 1.3 6.8 2 9 4.8 1.6-3.1 3.3-6.1 5.3-8.8 7-9.9 17.8-18.6 30.7-17.5 10 .9 18.7 8 20.8 18 .2.7-1 1.3-1.3.5-4.8-11.2-20-11.6-29.2-5.8-10.7 7-16.5 20-18.8 32-2.4 12-1 26.5 7.9 35.5a24 24 0 0 0 13.8 7c2.5.3 4.8 0 7.2-.5l1.6-.3c1.1-.3 2.2-.5 3.4-.4l1.7.3 1 .4c.9.4.8.3-.2-.3 3-.2 4.5 2 4.6 4.4.1 0 .2 0 .3.2 11.2 13.7 19.6 29.5 31.5 42.8l3.5 3.9c9 10 19.2 20.8 31.3 26l1.5.6c3.5 1.4 7 3.5 7.5 7.8.4 3.8-2.6 6.7-6 7.6-8 2-17-5-22.8-9.7-12.5-9.9-23-22.5-31.6-35.8l-.9-1.4a100 100 0 0 1-15.8-37l-.4.7a9 9 0 0 1-1.5 1.6c-1.5 1.2-3.2 2-5 2.5-3.5 1-7.3 1-10.9.7a38 38 0 0 1-19.7-8c-17.4-13.6-19.5-39-12.4-59.6-5.8 1.4-12.4-2.5-16.9-5.8a25.2 25.2 0 0 1-10.4-15.9c-1-6.4 3-15 9.1-17.4a48.1 48.1 0 0 1-10.3-27c-.7-15 7.3-29.2 19.5-37.3a113.1 113.1 0 0 1-6-79.5c15.4-52 66.9-81 116.2-93.7Zm-43.8 394.6.2-.4c1.2-4 2.8-12 8.8-9 5.7 3 2 11.5 0 15.7-2.4 5-6.5 9-12 10.1-4.6.9-9.6-.2-12.7-3.7a11.9 11.9 0 0 1-2.4-4.4l-.5 1a51 51 0 0 0-6.8 9.2c-.4.8-1.8.2-1.4-.6 2-5.2 1.7-13.3 6.5-17 4.2-3.4 8.1-.8 10.3 3l.2.3c3.2 5.9 8.4.3 9.8-4.2Zm-45.6-18.8.4-.6c4.5-6.2 12-13.5 19.7-7.8 2.4 1.8 2.4 4.8 0 6.6l-1 .7c-3.3 2.3-6.6 4.5-9 7.9-2.7 3.7-5 7.5-8.6 10.4-6.3 5-16.4 6-21.8-.8l-.6-.7c-.4-.5-1-1.2-1.4-2l-.3.5v.1l-.2.2c-2.2 3.5-5 6.5-8.6 8.8a25 25 0 0 1-21.8 2.7c-.7-.2-.5-1.2.2-1.3 9-.8 17.7-7.2 21.4-15.4l.4-1c1.5-3.2 3.1-6.3 6.8-7.6a9 9 0 0 1 9.7 2.8c2 2.2 2.5 6.7 6.2 5.7 4-1 6.3-6.1 8.5-9.2ZM46 378c2-1.6 5 0 5.6 2.2 2.5 10-7.8 21.6-17.7 22-2.5 0-5-.6-7.2-1.8-1.8-.9-3.8-3.2-5.8-3.6-2.4-.5-4.6 2.8-6.4 4.5-2.2 2-4.3 4-6.7 5.8-1 .8-2.5-.5-2-1.6l.7-2.1c3-7.8 8.1-19.2 17.7-16 4.7 1.6 8.2 7 13.2 2.7 4-3.4 4.3-8.9 8.6-12.1Zm42.3-40c9-10.2 30-4.8 33.9 7.7.9 2.8 0 6.3-2.2 8.3a8.7 8.7 0 0 1-10.3 1.3c-3-1.7-4.2-4.5-6.4-7a26.2 26.2 0 0 0-12-7c-1.1.7-2.1 1.4-3 2.4-.6.4-1.5-.2-1-.8.5-.7 1.2-1.5 2-2.1l-.3-.1c-1.2-.4-1.5-1.8-.7-2.6Zm58-113.1c2 0 4.4 1.8 4.1 4v.6c-.6 4.2-2 6.6-6.2 8.5a33.6 33.6 0 0 1-15.7 3l-.4 1.9c-.6 3.8-1.2 7.7-1.4 11.6-.2 7.2 2.5 13.2 5.4 19.7a42 42 0 0 1 .2 37.2 6 6 0 0 1-5.5 3.1c-2.6-.2-3.9-1-5.4-3-1.3-1.8-1-4.4 0-6.2v-.2c3-6 4-12.6 2.5-19.1-1.5-6.1-4.8-11.6-6.3-17.7-2.4-10 .2-19.8 5.2-28.3-3.8-1.1-7.3-3-9.7-6-.8-1-.4-3 1.2-2.9l1.8.2c5 .4 9.7.8 14.9-.6 2.6-.7 4.9-2 7.1-3.4l.5-.3c2.8-1.9 4.4-2.1 7.7-2.1Zm12.2-73.4c12.7-.8 23.6 7.6 28.9 18.8 5.7 12.2 3.3 26-1.8 38l-1.4 3.4c-2.5 5.7-5.8 12.6-11 15.7-5.8 3.5-10.8-.5-9-7 1-3.8 3.7-6.7 6-9.9 2-3 4-6 5.6-9.2a43.6 43.6 0 0 0 5.8-20.4c0-13-8.7-28-23.1-27.8-1 0-1-1.6 0-1.6Zm64.3-21.1c-.8-.6 0-2 .8-1.4a64.5 64.5 0 0 1 28 44.3c1.3 9.6.3 19.9-3.8 28.8-2.3 5-6.3 10-12 11.3a10.2 10.2 0 0 1-12.1-6.7c-.6-2 .4-4 2-5.1 5.3-3.5 9.5-7.9 12-13.8a49.8 49.8 0 0 0 3.6-19.2 46 46 0 0 0-18.5-38.2Zm180.3 6.7c-.7-.8.2-1.9 1-1.4a38.4 38.4 0 0 1 19.4 28.1c2 11.5-.6 27.2-9.5 35.5-5 4.7-14-1.5-9.9-7.6 3-4.2 6.1-7.8 7.8-12.8a42.8 42.8 0 0 0-8.9-41.8Zm-130.4-14.5c18.2-.8 29.2 20 31.8 35.5 1.5 9.6.3 19.4-5 27.8l-.3.4c-4.3 6.7-12.3 14.3-20.8 11.2-3.6-1.4-4.6-5.2-2.2-8.2 3.8-4.5 9.5-6.3 13-11.1 4-5.4 5.2-12.2 5-18.7v-.7c-.6-12.1-6.4-35.2-21.5-34.8-.9 0-.9-1.3 0-1.4Zm57-3.4c17.6-2.3 28.3 18.5 31.6 32.8 2.1 8.9 2.6 18.9 0 27.7l-.3.7c-2.1 6.6-8.5 18-16.8 14.5-2.3-1-4.6-3.4-3.5-6.1 1.4-3.5 3.4-4.4 6-6.7 2.1-1.7 3.6-4.1 4.6-6.5 2.9-6.5 3.5-14 3-21v-.8c-1-13.6-8.3-33.9-24.6-33.5-.8 0-.7-1 0-1.1Zm32.2-19.5c9.9-3.7 17.9 5.6 23.5 12.3 7 8.4 13.5 17.5 17.1 28 3.3 9.2 3.8 19.6 1 29-1.5 4.7-3.8 9-6.8 12.9l-.4.5c-3.2 3.9-6.3 6.2-11.5 4.9-2.1-.6-3-2.7-2.6-4.7.7-4.3 3-5.4 5.8-8.4a27 27 0 0 0 5.7-9.3c2.6-7 2.7-14.7 1-22-2-8-5.8-15.6-10.3-22.6l-1-1.5c-4.6-7.5-11.3-19-21.3-17.7-.8 0-.8-1.1-.2-1.4Z" fill="#000"/></g></g><g transform="translate(315 248)"><path fill-rule="evenodd" clip-rule="evenodd" d="M146.6 241a40.7 40.7 0 0 1-17.1-13.2c-1.5-2-2-4.2-1.6-6.2a8.9 8.9 0 0 1 9.6-7.2c1.9.3 3.7 1.3 5.2 3.5l.3.4a27 27 0 0 0 10 8.3c3.6 1.8 7.8 2.6 12.1 2.1 8.3-1 14-5.4 20-11.4l2.2-2.3c.5-.8 1.1-1.2 1.9-1.5a4 4 0 0 1 4.6 1.6c.4.7.7 1.5.6 2.5a25.7 25.7 0 0 1-8.5 16.2c-5.1 4.9-12 8.2-18.4 9.4-7.1 1.3-14.4.4-21-2.3Zm24.2-96.6c7.6 4.6 19 15.3 11 26.6-9.6 10-23.4-1.4-30.2-6.6-6.3-4-13.3 6.3-7.5 11 49 36.3 69-29.8 30.5-36.4-4.2-.8-5.8 4-3.8 5.4ZM83 102c.8-10.3 16.6-12.7 18.1-2.4a42 42 0 0 1-4.3 25.9c-4 7.9-14 4.2-14.7-3-1-9.7.3-14 .9-20.5Zm120-4.5c2.2-3 5.4-4.9 9.2-3.8 11.9 3.5 8.4 20.4 4.2 28.6-2.3 4.4-9.6 5.6-12.9 1.6-5.4-6.4-8-19.1-1.1-25.5l.6-1ZM96.6 56.8l1.9-.3c5.8-1 13-2 17.1 2.7 2.2 2.5 3 7 0 9.4-5.1 4.2-10.8 2.6-17 3-5.1.2-10 1-14.9 2.5C73 77 64.2 82.8 55 88.9c-1.2.8-2.4-.7-1.9-1.8a59.3 59.3 0 0 1 26-24.1 64 64 0 0 1 17.5-6.2Zm95.6-4.6 1.4.3c15.7 3.2 36 9.8 43.4 25.1.3 2.2 0 2.7-.3 3-.2.3-.4.7-1.4 1A36 36 0 0 1 226 78l-2.8-1.4a77.7 77.7 0 0 0-10.1-4.3c-7.5-2.4-15.1-4.1-23-5a9.4 9.4 0 0 1-4.5-1.8 7 7 0 0 1-2.6-4 7 7 0 0 1 .8-5.8 7.4 7.4 0 0 1 3.6-3.1c1.5-.6 3.2-.8 4.9-.4Z" fill="#000"/></g><g transform="translate(279 400)"></g><g transform="translate(179 343)"></g><g transform="translate(203 303)"></g></g></g></g></svg>