<svg xmlns="http://www.w3.org/2000/svg" viewBox="0 0 704 704" fill="none" shape-rendering="auto" width="150" height="150"><mask id="viewboxMask"><rect width="704" height="704" rx="0" ry="0" x="0" y="0" fill="#fff" /></mask><g mask="url(#viewboxMask)">
    <linearGradient id="linear-gradient" x1="0%" y1="0%" x2="100%" y2="100%">
      <stop stop-color="hsl(240deg 92% 90%)" />
      <stop offset="1" stop-color="hsl(179deg 91% 84%)"/>
    </linearGradient>
    <rect xmlns="http://www.w3.org/2000/svg" fill="url(#linear-gradient)" width="704" height="704" x="0" y="0"/> <g transform="translate(-35.2 0)"><g transform="translate(70.4 70.4) scale(0.8)"><g fill-rule="evenodd" clip-rule="evenodd"><path d="M705.3 1074a2351.1 2351.1 0 0 1-15.6-101c-1-7.7-2.5-16.4 2.7-22 7.3-8 14-14.8 14.8-26.2.8-10.7-2.8-22.4-5-32.8a809.4 809.4 0 0 0-17.3-64.7c-6.6-21.7-13.9-43.2-21.3-64.6-6.9-20-13.5-40.3-22.5-59.5-17-36.5-46-63.5-81.6-81.6-9-4.5-27-20.5-36.3-24-8.5-3.4-8.5 6.3-16.9 2.6-6.7-2.9-13-6.7-16.7-13.2-4-7-14.3-16.9-15.9-25-3.3-17.4.3-32.2-12-45.3a90 90 0 0 0-41.1-23.8c-33.7-9.3-78.5-2.8-98.8 28.5-9.7 14.9-13 33-26.2 45.1-11.4 10.7-8.8 18-23.6 23.4-.9.3-23.6-4.5-24.4-4.2-16.2-3.5-31.7 6.2-46.5 11.8a325.4 325.4 0 0 0-63 32.3 399.2 399.2 0 0 0-102.3 98.5 482.5 482.5 0 0 0-76.4 161c-1.7 6.4-3.5 13-1.5 19.4 1.7 5.3 5.4 9.2 9.8 12.4 6 4.3 18 7 17.7 15.7-.1 6.6-2.4 13.5-3.5 20-1.3 7.7-2.3 15.5-3.4 23.2-4.8 35.4-8.6 71-10.3 106.6a920 920 0 0 0-.5 106c.1 2.3.8 4.5 2 6.2-1 .4-1.2 2.4.1 2.7l2.7.5a12 12 0 0 0 7 2.4l5.5.2c19.3 4 38.6 7.9 58.1 10.8 23.8 3.5 47.6 6.3 71.5 8.7 49.2 4.8 98 3.2 147.1.6a1877 1877 0 0 1 147.4-2c49.2 1.4 98.4 3.5 147.6 4.4 55 1 110-.5 164.8-5 7.5-.5 12.2-6.5 10.7-14-8.9-44.7-19-89.1-27-134Z" fill="#fce5d3"/><path d="m201 597.5 1.2-.4c14.5-5.7 29.6-14.8 45.4-11.4.5-.2 10.8 1.9 17.9 3.2l-6.7 7L247 598c40.7 67.1 88.8 100.7 144.3 100.7 55.5 0 97.7-33.6 126.4-100.7l4-1c.4 0 1 .2 1.5.4 9.3 3.6 27.4 19.6 36.3 24.1 35.6 18 64.5 45 81.6 81.6 8.7 18.6 15.2 38 21.8 57.5l.7 2c7.4 21.4 14.7 43 21.3 64.6 6.3 20.4 12 41 16.6 61.8l.7 2.9c2.2 10.4 5.8 22 5 32.8a29 29 0 0 1-3 10.7l-80.4 29 38.4 261.3c-35.1 1.5-70.3 2-105.5 1.3-49.2-.9-98.4-3-147.6-4.3-47.7-1.2-95.3-.7-143 1.7l-12 .6a946.3 946.3 0 0 1-139.5-1l-3.1-.3v-38.3l16.3-212.9-83-15.6-81.3-39.5a21.7 21.7 0 0 1-5.6-8.8c-1.9-6-.5-12 1-18l.5-1.3a492.8 492.8 0 0 1 76.4-161A399.3 399.3 0 0 1 138 629.7c19.8-13 40.9-23.9 63-32.3Z" fill="#f4f4f5"/><path d="M232.2 584.6c5.1-.3 10.3.6 15.4 1 .4.1.6.8 0 .9-9 1.9-18 4.5-26.9 7.1l-3.8 1.2c-10 3-19.8 6-29.6 10-19.4 7.9-37.8 18.5-54.8 30.8C67.2 682.8 20 754.3-9.9 828.3a526 526 0 0 0-24.3 77c-.4 1.6-2 5.4-1 7 .7 1.3 3.6 2.1 5 2.9l4.5 2.3 25.2 12.9 2.3 1.1c38 18.6 78.4 34.4 121 35.5l.4-3.7a342 342 0 0 1 9.9-60c.3-1 1.6-.6 1.7.3 3 23.1 2 46.4 1 69.7-1.8 41-4.3 82.2-6.5 123.3-1.2 20.6-2.6 41-3.9 61.7-1.3 20.5-1.7 41.6-4.7 62-.6 4.6-6 7-10 6.6-4.4-.5-7.9-4.5-8-9 0-11.9 1.5-24 2.4-35.8l2.5-33.8c3.1-41.1 6.8-82.2 10.2-123.3a4771 4771 0 0 1 3.8-43.7C76.4 979.8 34.2 963-6.1 943.5c-.6 13.2-2 26.5-3.4 39.6-3.8 36.8-7.1 73.6-9.6 110.5a2254.2 2254.2 0 0 0-4.2 92.7l-.2 7c0 4.4-.5 8.5-4.3 11.7-3.7 3.3-8.9 3.5-12.6 0-5-4.6-4.2-10.9-4-17.1a1675.6 1675.6 0 0 1 1.8-47.2 1321 1321 0 0 1 10.5-109.5l2-14c3.5-26 7.5-52.7 15.5-77.9-3.1-1.5-6.2-3-9.3-4.7-5.5-2.7-11.2-5.4-16.6-8.4-4.2-2.5-7.9-5.8-9-10.8-1.4-5.5.6-11.5 2-16.9v-.4a502 502 0 0 1 26.6-80 523.2 523.2 0 0 1 67.8-117 353.8 353.8 0 0 1 88.7-83.3 239 239 0 0 1 53.8-25.7 142.6 142.6 0 0 1 42.8-7.5Zm90.1-66c6-6.5 18.1.2 15.2 8.8a108.2 108.2 0 0 1-34.7 52A79.4 79.4 0 0 1 247 598l1.7 2.4a321.1 321.1 0 0 0 46.1 52.6c36 31.2 84.8 48 132 36 37.1-9.4 69.8-38.8 79.4-76.2-1.3.6-3 .9-4.8.5-7.7-1.7-15.3-9.8-20.3-15.6-5.3-6.3-9.5-13-12.6-20.7-5.6-14-7.4-32.1.3-45.7 1-1.7 3-.7 3.3 1l.3 2.5c1.5 12.7 3.3 25 9.3 36.6a76 76 0 0 0 18.2 23.1c2.6 2 5.8 3.6 8.1 6l.5.4c.6-5 4.1-7.3 7.6-7.2 3.3.2 7.3 1.6 8.8 2.3l.1.1a341 341 0 0 1 65.1 42 259 259 0 0 1 88.4 129c7.5 25.3 11.8 51.4 16.3 77.4l2.8 16c4.2 23.9 8.9 48.4 18.4 70.7 2.5 5.7.6 11.1-5.5 13.4A1493 1493 0 0 1 688 953c3.7 16 6 32.5 8.7 48.5 6 34.1 13.2 68 19.4 102 3.2 17.5 6.1 35 9.3 52.3l4.7 25.2 2.4 13.6.1.7c.5 2.4 1 4.9.4 7.3-.8 2.7-2.9 4.6-4.8 6.6-1.6 1.6-3.8 1.6-5.7.7l-.7-.3c-3.4-1.6-6-3.2-7.3-7-.7-2.5-1-5.2-1.5-7.7a3535.6 3535.6 0 0 1-7.8-43.6l-1.6-9.1c-5.2-31.4-10.2-62.9-12.8-94.5-1-14-2.3-28.1-3.5-42.2l-.9-10.5c-1.1-13.3-2.5-27-2.7-40.5l-4.5 1.6L657 964c-5.5 2-12.5 6-18.4 5.2-2.9-.3-5-1.2-6.8-2.9 2 28.8 4.8 57.4 8.5 86a1965.7 1965.7 0 0 0 22 135c.6 3.2 1.4 6.4 1.9 9.6.5 3.7-.5 5.9-2.5 9-1.7 2.4-5 3.7-7.8 2-3.6-2.3-5.5-4.3-6.5-8.4-1-3.7-1.6-7.6-2.3-11.4a1654.2 1654.2 0 0 1-11.4-65.2c-7.8-52-12.7-104.4-15.2-156.8a1388 1388 0 0 1-1.4-77.8c0-13.3.5-26.6 1.4-39.9 1-13.4 3-26.5 4.8-39.8 0-.5.7-.5.7 0 .8 14.9 2.1 29.8 2.8 44.7.6 14.3.9 28.5 1.4 42.8.6 18.7 1.5 37.5 2.7 56.2a9.6 9.6 0 0 1 8.5-3.1c4.7-1 9.7-3.4 14.1-5l16.8-5.5 26.4-8.7a679 679 0 0 1-18-80.8l-2-12.3c-4-24.2-8.5-48.5-15.8-72a229.8 229.8 0 0 0-34.8-68.2 370.2 370.2 0 0 0-52.7-55.3C557 627 539.7 614 523 600c.1.9.2 2 0 3-3.5 25.9-17 50-35.8 67.9-37.7 36-93.6 43.4-142 26.5-46.7-16.3-88-55-102.6-102.8-.3-.8.8-1 1.3-.5l2.4 3.3c0-.4.2-.9.7-1a129 129 0 0 0 46.6-29.2 100.2 100.2 0 0 0 21.3-33.3l.4-1c1.7-5 3.2-10.2 7-14.2Z" fill="#000"/></g><g transform="matrix(.99789 0 0 1 156 62)"><g fill-rule="evenodd" clip-rule="evenodd"><path d="M242 75.3c56.8 0 115.6 44 136.4 72 17.5 23.7 26.9 130.4 26.9 202.6 0 15 8.3 43.5 5.9 58-9 52.9-47.7 97.2-124.5 97.2S154.8 474.7 97.7 393c-27.7 0-41-21.3-41.3-54.8-.2-33.5 26.8-45.7 26.8-45.7s-9.6-132.3 14.5-166.7C122 91.3 185.3 75.3 242 75.3Z" fill="#fce5d3"/><path d="M218.1 56.6c35.9-3.7 71-.6 106.4 5.7 2.7.5 4.2 2.2 4.8 4.4 16.6.7 33.3 2 49.9 2.9 6 .3 9.4 6.3 6.7 11.6l-1.7 3.2.7-.3c5-1.6 10.4-2.3 15.3.2 6.2 3.2 8.6 10.4 7.2 17a26 26 0 0 1-1.6 4.8l4.1.1c7.3 1 12.6 6.6 13 14 .6 11.1-6.6 22.4-15 30.4 1.1 2.5 1.6 5.5 1.1 8.5-1 6-5.4 9.6-10.5 12a54.8 54.8 0 0 1 2.5 21c-.2 2.4-2.3 4.3-4.5 4.8a330.2 330.2 0 0 1 15.5 71.2 433.2 433.2 0 0 1 3 74.4l-.2 2.9c-.4 8.3-.4 17-2 25.3A71 71 0 0 1 421 400c1.1 12-.6 24.6-4.4 36-14.4 43.5-57.8 70.9-101.4 78-40.3 6.6-87-2.3-110.6-39-.4-.5.4-1 .9-.6a112.8 112.8 0 0 0 57.7 22.8c36.8 5.1 78-3.6 107.6-26.7a83.8 83.8 0 0 0 31-72c-1-9.2-5-17.2-7.6-26-.9-2.9 0-5.6 1.9-7.6.5-7.1 1.7-14.3 2.1-21.4a489.6 489.6 0 0 0-1-74.5c-2.5-30.5-9.4-60.3-13.4-90.6a5 5 0 0 1-5.9.7l-.2-.2-1.2-.7h-.2c-8.4.9-17-.3-25-2.8a73.6 73.6 0 0 1-23.1-12c-1.3 6.8-1.9 13.5-1.9 20.4 0 4.2-4.5 6.4-8 4.6-16-8-31.1-17.3-45.5-27.8l-5 25.9c-.7 3.3-5 4.6-7.7 3a96.2 96.2 0 0 1-27.6-24.2l-4.6 8.7-2.3 4.3c-2.3 4.3-5.3 9-10.3 10.3-5.2 1.5-9.6-2-11.4-6.7l-1.5-4.5a263.4 263.4 0 0 1-15.2 29.7c-8.6 14.3-19 27-29.2 40.2-3.1 4-8.5.1-8.9-3.7l-.6-6.8c-6 12-12.3 24-19 35.6l1 3.8c2.7 11.3 5 22.7 7.6 34 .8 3.7-1.1 8.9-5.4 9.5-5.1.8-10 3.4-15.2 1.6-5.7-2-6.8-7-9.5-11.6-.5-1-1.2-1.8-1.8-2.6l-.2.2c-.4.6-1.4 0-1.2-.6l.3-.8c-2.3-2.4-5-4.5-7.6-6.7-6-1-12.9.1-17 2.6-9.5 5.6-13.9 17.1-14 27.7a73 73 0 0 0 10.3 37c2.8 4.7 6.8 9 12 11 5 2 10.6 1.4 15.9 3.4 3.4 1.2 5.6 5 3.5 8.6l-.5.7 1.6 2 3.2 4.6 8.2 9c5 5.5 9.8 11.2 14.8 16.9 4.6 5.3 9.5 10.3 14.6 15.2 4.8 4.6 10.8 8.5 15.2 13.5 4.3 4.8 5.4 13.3-1.6 16-7.8 3.2-14.7-4-20-9l-.2-.1c-9.6-8.9-18.3-19-25.1-30.1-6.9 4.6-16.8 5-23.6.4a20.6 20.6 0 0 1-7.6-11 16 16 0 0 1-3.7.4c-.7.4-1.3.8-2 1-5 2.7-11.3 1.5-13.6-4-2-5.2 0-11 2-15.9l.4-1c1-2.8 2.3-5.8 3.7-8.7-4-3-7.6-7-10.6-11.3a84 84 0 0 1-12.8-54A46.6 46.6 0 0 1 65 295.5l-.3-.8A116.8 116.8 0 0 1 56 255c-1.4-15.4-1-31.2 1-46.6 3.6-29 13-57.4 29.7-81.5-4.8-5.6-8.5-12.3-6.6-20a15 15 0 0 1 6-8.8c1.7-1 3.7-1.3 5.4-2.2l.5-.3c.8-.4.2-.3-.2-2.4-1.8-8-.3-15.8 8.5-18.4 8.3-2.5 16.2 2.8 21.1 9.1 13-9.1 30-14 44.9-18 17-4.6 34.4-7.5 52-9.2ZM78.8 326.3c0-6.6 6.2-10.6 12.3-9.6 4 .8 7.5 3.2 10.7 5.7l1.6 1.3c3.9 3 8.4 6.4 10.7 10.7 3.4 6.4-3.8 15-10.5 10.6-4.7-3.1-7.6-8.1-10.7-12.7l-.3-.5c-1.4-2-2.6-4.3-4.5-6l-.4-.3c-.6-.5-1.3-1-2-1.2-1.6-.5-4.5.1-5.2 2v.2c-.3 1-1.7.7-1.7-.2Z" fill="#000"/></g></g><g transform="translate(315 248)"><path fill-rule="evenodd" clip-rule="evenodd" d="M146.6 241a40.7 40.7 0 0 1-17.1-13.2c-1.5-2-2-4.2-1.6-6.2a8.9 8.9 0 0 1 9.6-7.2c1.9.3 3.7 1.3 5.2 3.5l.3.4a27 27 0 0 0 10 8.3c3.6 1.8 7.8 2.6 12.1 2.1 8.3-1 14-5.4 20-11.4l2.2-2.3c.5-.8 1.1-1.2 1.9-1.5a4 4 0 0 1 4.6 1.6c.4.7.7 1.5.6 2.5a25.7 25.7 0 0 1-8.5 16.2c-5.1 4.9-12 8.2-18.4 9.4-7.1 1.3-14.4.4-21-2.3Zm24.2-96.6c7.6 4.6 19 15.3 11 26.6-9.6 10-23.4-1.4-30.2-6.6-6.3-4-13.3 6.3-7.5 11 49 36.3 69-29.8 30.5-36.4-4.2-.8-5.8 4-3.8 5.4ZM83 102c.8-10.3 16.6-12.7 18.1-2.4a42 42 0 0 1-4.3 25.9c-4 7.9-14 4.2-14.7-3-1-9.7.3-14 .9-20.5Zm120-4.5c2.2-3 5.4-4.9 9.2-3.8 11.9 3.5 8.4 20.4 4.2 28.6-2.3 4.4-9.6 5.6-12.9 1.6-5.4-6.4-8-19.1-1.1-25.5l.6-1ZM96.6 56.8l1.9-.3c5.8-1 13-2 17.1 2.7 2.2 2.5 3 7 0 9.4-5.1 4.2-10.8 2.6-17 3-5.1.2-10 1-14.9 2.5C73 77 64.2 82.8 55 88.9c-1.2.8-2.4-.7-1.9-1.8a59.3 59.3 0 0 1 26-24.1 64 64 0 0 1 17.5-6.2Zm95.6-4.6 1.4.3c15.7 3.2 36 9.8 43.4 25.1.3 2.2 0 2.7-.3 3-.2.3-.4.7-1.4 1A36 36 0 0 1 226 78l-2.8-1.4a77.7 77.7 0 0 0-10.1-4.3c-7.5-2.4-15.1-4.1-23-5a9.4 9.4 0 0 1-4.5-1.8 7 7 0 0 1-2.6-4 7 7 0 0 1 .8-5.8 7.4 7.4 0 0 1 3.6-3.1c1.5-.6 3.2-.8 4.9-.4Z" fill="#000"/></g><g transform="translate(279 400)"></g><g transform="translate(179 343)"></g><g transform="translate(203 303)"><path fill-rule="evenodd" clip-rule="evenodd" d="M337.8 15c23.5 0 36.9 5 41.8 5.4h.1c2 .2 4 .4 5.8 1 7 2.8 8.2 10.2 4.1 14.9-.3 9.7 1 21-1.2 30.6-2.7 41-21.9 47.8-32.8 50.3-5.5 1.3-12 1.8-17.8.5-10-.4-19.8-3.5-28.2-9a52 52 0 0 1-23.2-32.9c-1.4-6.5-2-13.4-1.3-20l.1-1a32 32 0 0 0-12.7-2.3c-2.2 0-4.3-.1-6.4 0l-6 .9a16 16 0 0 0-6.3 3.5v2.5c-.5 6.3-1.3 12.7-2.6 19-1.9 9-5 17.8-11.4 24.3-2.2 3.3-4.9 6.2-8.2 8.7a62.9 62.9 0 0 1-43 11.3 64.6 64.6 0 0 1-52-36.8l-.2-.7c-2.9-7.6-5.2-17.5-14.4-19.2l-2-.3c-4.2-.8-8-1.9-10.5-6-1-1.8-1.6-3.8-1.8-5.8l-4.3.3c-11.4 2.4-79.8 4.4-85.3 4.4 0 0-10.5 4.5-14.9 1-3-2.3-4-5.5-2.4-9.1 2.6-5.4 14.3-8.7 19.6-9.7 0 0 84.3.7 90.4-.4 3.8-4 10.5-3.4 16-4a56.3 56.3 0 0 1 16.4-7l3-1.2a133.2 133.2 0 0 1 72.6-3c7.7 1.1 15.2 2.8 22.8 4.7l1.5.4c8 2.1 16.1 4 24.4 2.5a80.8 80.8 0 0 0 19.3-6.5l.8-.4c13.6-6.2 34.9-10.9 50.2-10.9ZM218.1 37.7c-5-1-7.2 6.7-2.1 7.8 3.5.8 6.5 2.6 8.6 5.6l.2.3c2.7 4.4 9.7.4 7-4-3.2-5-8-8.4-13.7-9.7ZM365 33c-1.7-1.2-4.4-.3-5.4 1.5-1.1 2-.4 4 1.3 5.3l.1.2c1.6 1 3 3 3.2 5v.2c.2 5.1 8.2 5.1 8 0-.2-5.1-3-9.3-7.1-12.2Z" fill="#000"/></g></g></g></g></svg>