<svg xmlns="http://www.w3.org/2000/svg" viewBox="0 0 704 704" fill="none" shape-rendering="auto" width="150" height="150"><mask id="viewboxMask"><rect width="704" height="704" rx="0" ry="0" x="0" y="0" fill="#fff"/></mask><g mask="url(#viewboxMask)">
    <linearGradient id="linear-gradient" x1="0%" y1="0%" x2="100%" y2="100%">
      <stop stop-color="hsl(67deg 90% 78%)"/>
      <stop offset="1" stop-color="hsl(28deg 87% 76%)"/>
    </linearGradient>
    <rect xmlns="http://www.w3.org/2000/svg" fill="url(#linear-gradient)" width="704" height="704" x="0" y="0"/> <g transform="translate(-35.2 0)"><g transform="translate(70.4 70.4) scale(0.8)"><g fill-rule="evenodd" clip-rule="evenodd"><path d="M705.3 1074a2351.1 2351.1 0 0 1-15.6-101c-1-7.7-2.5-16.4 2.7-22 7.3-8 14-14.8 14.8-26.2.8-10.7-2.8-22.4-5-32.8a809.4 809.4 0 0 0-17.3-64.7c-6.6-21.7-13.9-43.2-21.3-64.6-6.9-20-13.5-40.3-22.5-59.5-17-36.5-46-63.5-81.6-81.6-9-4.5-27-20.5-36.3-24-8.5-3.4-8.5 6.3-16.9 2.6-6.7-2.9-13-6.7-16.7-13.2-4-7-14.3-16.9-15.9-25-3.3-17.4.3-32.2-12-45.3a90 90 0 0 0-41.1-23.8c-33.7-9.3-78.5-2.8-98.8 28.5-9.7 14.9-13 33-26.2 45.1-11.4 10.7-8.8 18-23.6 23.4-.9.3-23.6-4.5-24.4-4.2-16.2-3.5-31.7 6.2-46.5 11.8a325.4 325.4 0 0 0-63 32.3 399.2 399.2 0 0 0-102.3 98.5 482.5 482.5 0 0 0-76.4 161c-1.7 6.4-3.5 13-1.5 19.4 1.7 5.3 5.4 9.2 9.8 12.4 6 4.3 18 7 17.7 15.7-.1 6.6-2.4 13.5-3.5 20-1.3 7.7-2.3 15.5-3.4 23.2-4.8 35.4-8.6 71-10.3 106.6a920 920 0 0 0-.5 106c.1 2.3.8 4.5 2 6.2-1 .4-1.2 2.4.1 2.7l2.7.5a12 12 0 0 0 7 2.4l5.5.2c19.3 4 38.6 7.9 58.1 10.8 23.8 3.5 47.6 6.3 71.5 8.7 49.2 4.8 98 3.2 147.1.6a1877 1877 0 0 1 147.4-2c49.2 1.4 98.4 3.5 147.6 4.4 55 1 110-.5 164.8-5 7.5-.5 12.2-6.5 10.7-14-8.9-44.7-19-89.1-27-134Z" fill="#fce5d3"/><path d="m201 597.5 1.2-.4c14.5-5.7 29.6-14.8 45.4-11.4.5-.2 10.8 1.9 17.9 3.2l-6.7 7L247 598c40.7 67.1 88.8 100.7 144.3 100.7 55.5 0 97.7-33.6 126.4-100.7l4-1c.4 0 1 .2 1.5.4 9.3 3.6 27.4 19.6 36.3 24.1 35.6 18 64.5 45 81.6 81.6 8.7 18.6 15.2 38 21.8 57.5l.7 2c7.4 21.4 14.7 43 21.3 64.6 6.3 20.4 12 41 16.6 61.8l.7 2.9c2.2 10.4 5.8 22 5 32.8a29 29 0 0 1-3 10.7l-80.4 29 38.4 261.3c-35.1 1.5-70.3 2-105.5 1.3-49.2-.9-98.4-3-147.6-4.3-47.7-1.2-95.3-.7-143 1.7l-12 .6a946.3 946.3 0 0 1-139.5-1l-3.1-.3v-38.3l16.3-212.9-83-15.6-81.3-39.5a21.7 21.7 0 0 1-5.6-8.8c-1.9-6-.5-12 1-18l.5-1.3a492.8 492.8 0 0 1 76.4-161A399.3 399.3 0 0 1 138 629.7c19.8-13 40.9-23.9 63-32.3Z" fill="#f4f4f5"/><path d="M232.2 584.6c5.1-.3 10.3.6 15.4 1 .4.1.6.8 0 .9-9 1.9-18 4.5-26.9 7.1l-3.8 1.2c-10 3-19.8 6-29.6 10-19.4 7.9-37.8 18.5-54.8 30.8C67.2 682.8 20 754.3-9.9 828.3a526 526 0 0 0-24.3 77c-.4 1.6-2 5.4-1 7 .7 1.3 3.6 2.1 5 2.9l4.5 2.3 25.2 12.9 2.3 1.1c38 18.6 78.4 34.4 121 35.5l.4-3.7a342 342 0 0 1 9.9-60c.3-1 1.6-.6 1.7.3 3 23.1 2 46.4 1 69.7-1.8 41-4.3 82.2-6.5 123.3-1.2 20.6-2.6 41-3.9 61.7-1.3 20.5-1.7 41.6-4.7 62-.6 4.6-6 7-10 6.6-4.4-.5-7.9-4.5-8-9 0-11.9 1.5-24 2.4-35.8l2.5-33.8c3.1-41.1 6.8-82.2 10.2-123.3a4771 4771 0 0 1 3.8-43.7C76.4 979.8 34.2 963-6.1 943.5c-.6 13.2-2 26.5-3.4 39.6-3.8 36.8-7.1 73.6-9.6 110.5a2254.2 2254.2 0 0 0-4.2 92.7l-.2 7c0 4.4-.5 8.5-4.3 11.7-3.7 3.3-8.9 3.5-12.6 0-5-4.6-4.2-10.9-4-17.1a1675.6 1675.6 0 0 1 1.8-47.2 1321 1321 0 0 1 10.5-109.5l2-14c3.5-26 7.5-52.7 15.5-77.9-3.1-1.5-6.2-3-9.3-4.7-5.5-2.7-11.2-5.4-16.6-8.4-4.2-2.5-7.9-5.8-9-10.8-1.4-5.5.6-11.5 2-16.9v-.4a502 502 0 0 1 26.6-80 523.2 523.2 0 0 1 67.8-117 353.8 353.8 0 0 1 88.7-83.3 239 239 0 0 1 53.8-25.7 142.6 142.6 0 0 1 42.8-7.5Zm90.1-66c6-6.5 18.1.2 15.2 8.8a108.2 108.2 0 0 1-34.7 52A79.4 79.4 0 0 1 247 598l1.7 2.4a321.1 321.1 0 0 0 46.1 52.6c36 31.2 84.8 48 132 36 37.1-9.4 69.8-38.8 79.4-76.2-1.3.6-3 .9-4.8.5-7.7-1.7-15.3-9.8-20.3-15.6-5.3-6.3-9.5-13-12.6-20.7-5.6-14-7.4-32.1.3-45.7 1-1.7 3-.7 3.3 1l.3 2.5c1.5 12.7 3.3 25 9.3 36.6a76 76 0 0 0 18.2 23.1c2.6 2 5.8 3.6 8.1 6l.5.4c.6-5 4.1-7.3 7.6-7.2 3.3.2 7.3 1.6 8.8 2.3l.1.1a341 341 0 0 1 65.1 42 259 259 0 0 1 88.4 129c7.5 25.3 11.8 51.4 16.3 77.4l2.8 16c4.2 23.9 8.9 48.4 18.4 70.7 2.5 5.7.6 11.1-5.5 13.4A1493 1493 0 0 1 688 953c3.7 16 6 32.5 8.7 48.5 6 34.1 13.2 68 19.4 102 3.2 17.5 6.1 35 9.3 52.3l4.7 25.2 2.4 13.6.1.7c.5 2.4 1 4.9.4 7.3-.8 2.7-2.9 4.6-4.8 6.6-1.6 1.6-3.8 1.6-5.7.7l-.7-.3c-3.4-1.6-6-3.2-7.3-7-.7-2.5-1-5.2-1.5-7.7a3535.6 3535.6 0 0 1-7.8-43.6l-1.6-9.1c-5.2-31.4-10.2-62.9-12.8-94.5-1-14-2.3-28.1-3.5-42.2l-.9-10.5c-1.1-13.3-2.5-27-2.7-40.5l-4.5 1.6L657 964c-5.5 2-12.5 6-18.4 5.2-2.9-.3-5-1.2-6.8-2.9 2 28.8 4.8 57.4 8.5 86a1965.7 1965.7 0 0 0 22 135c.6 3.2 1.4 6.4 1.9 9.6.5 3.7-.5 5.9-2.5 9-1.7 2.4-5 3.7-7.8 2-3.6-2.3-5.5-4.3-6.5-8.4-1-3.7-1.6-7.6-2.3-11.4a1654.2 1654.2 0 0 1-11.4-65.2c-7.8-52-12.7-104.4-15.2-156.8a1388 1388 0 0 1-1.4-77.8c0-13.3.5-26.6 1.4-39.9 1-13.4 3-26.5 4.8-39.8 0-.5.7-.5.7 0 .8 14.9 2.1 29.8 2.8 44.7.6 14.3.9 28.5 1.4 42.8.6 18.7 1.5 37.5 2.7 56.2a9.6 9.6 0 0 1 8.5-3.1c4.7-1 9.7-3.4 14.1-5l16.8-5.5 26.4-8.7a679 679 0 0 1-18-80.8l-2-12.3c-4-24.2-8.5-48.5-15.8-72a229.8 229.8 0 0 0-34.8-68.2 370.2 370.2 0 0 0-52.7-55.3C557 627 539.7 614 523 600c.1.9.2 2 0 3-3.5 25.9-17 50-35.8 67.9-37.7 36-93.6 43.4-142 26.5-46.7-16.3-88-55-102.6-102.8-.3-.8.8-1 1.3-.5l2.4 3.3c0-.4.2-.9.7-1a129 129 0 0 0 46.6-29.2 100.2 100.2 0 0 0 21.3-33.3l.4-1c1.7-5 3.2-10.2 7-14.2Z" fill="#000"/></g><g transform="matrix(.99789 0 0 1 156 62)"><g fill-rule="evenodd" clip-rule="evenodd"><path d="M120.4 26.5c63-3.4 118.9-21.1 163.2 18.5 0 0 71.8-53.6 83.8-33.2 8 13.7-3.1 32-.2 49 19.5 33 18.4 89.2 19.5 102.4 2.8 33.1 20.2 157.9 20.2 187.5 0 15.1-12.4 54.7-20.2 76.8-17.3 49-50.3 74-104.4 74-54 0-142.4-45.2-170.7-85.3-2.5-3.5-18.5 6.7-35.3-11C58 385.7 48 349 48 327c0-27.8-18-47.1-15.9-82.8 4.7-79.5 21-214 88.3-217.8Z" fill="#fce5d3"/><path d="M367.4 11.6c8 13.7-3 32 0 49 7.4 12.7 11.9 29 14.6 44.8l-14.8 7.8-5.4.8c-88.2 13-144.6 24.7-169 35.1-24.6 10.5-54.5 47.5-89.7 110.8l-1 2-7 47.2-32 9.8-15 7.1c-.4-27.3-18-46.6-16-81.9 4.7-79.5 21-214 88.4-217.8 63-3.4 118.8-21.1 163.2 18.5C331.5 9.1 359.4-2 367.4 11.6Z" fill="#f4f4f5"/><path d="M113.4-66h2.5l2.7.4a22 22 0 0 1 12 6.8l.2.3a31 31 0 0 1 4.1 3.7l.7-.6 2-1.6c3-2.6 6.6-4.5 10.4-5.6l.5-.1h.3c2.7-1 5.6-1.4 8.4-1.4 3.5-.1 6.9.4 10 1.7 3.9 1.6 7.2 4 10 7 1.8 1.6 3.4 3.2 5 5a37.5 37.5 0 0 1 8.6 14.9 170.7 170.7 0 0 1 27-1.3 132.3 132.3 0 0 1 45.9 9.9c3.6 1.4 7.1 3.3 10.4 5.5l2.8 1.7 4.1 2.5c3.2 2 6.3 4.4 9.2 7A99.8 99.8 0 0 1 301.1 0c6.3 3.4 12 7.8 17.2 13a128.4 128.4 0 0 1 28.2-11.9 98.6 98.6 0 0 1 18.8-3.5l4.1-.3 1.8-.2h1.5c.4-.1 1 .9 1 1.3l.1.3.9 1h.8c.7 0 1.6 1.3 2.1 1.9l.4.4a4 4 0 0 1 1 2c.6 4.1 1 8.3 1.5 12.5.1 3.1 0 6.2-.5 9.3l-1.2 9-2 6.3-.7 2.4c-1.6 5.3-3.5 10.4-5.7 15.4 1.6 1.8 3.1 3.6 4.5 5.6l1 1 .4-.3c.5-.2.8 0 1.1.4 3.2 3 5.4 6.6 6.9 10.6l.8 2 .5 1.1a73.7 73.7 0 0 1 4.1 16.9 312 312 0 0 1 5.5 22 5 5 0 0 1-.2 3l.9 1 1.6 1.5c2.7 2.7 5.5 5.6 7.5 8.8 2 3.3 3.6 6.9 5.3 10.4l.3.8.8 1.5a37 37 0 0 1 4 14.6 30.3 30.3 0 0 1-1.9 15.6c-1 4.6-3.5 8.8-7.3 11.5-.9.8-1.7 1.5-2.7 2a8.4 8.4 0 0 1-6.8.9h-.3l-.8-.3c.4.3.6.7 0 1a5 5 0 0 1-1.6.5c.2.3.2.6-.2.8-1 .5-1.8.7-2.6.5l.2 1.4c1.3 10.5 2.5 12.6 3.5 24 .7 11.5 1.8 23 3.3 34.5l.5 4.2a444.4 444.4 0 0 0 10 56.8c1.5 4.4 2.5 8.8 3 13.4a133 133 0 0 1 1.8 14.1c1.1 3 1.7 6.1 1.7 9.3.1 4.2 0 8.4-.5 12.6-.2 4.4-.8 8.7-1.8 13a73.5 73.5 0 0 1-4.6 17 164.8 164.8 0 0 1-20.2 44c-5 7.8-10.3 15.4-16.4 22.4A153.4 153.4 0 0 1 304 504a99.8 99.8 0 0 1-47 2.8 96 96 0 0 1-19.5-4.7c-5.2-1.8-10-4-15-6.3a80 80 0 0 1-21.4-15.7c-.5-.4-.2-1 .4-1.2h.2l-.7-.7-.2-.1-.3-.3c-.4-.4 0-1.1.3-1.3h.5v-.2l-.1-.2h-.2c-.5-.5-.2-1.2.4-1.4h1.3l.2.1-.4-.3c-.6-.5-.4-1 .3-1.3.6 0 1.1.2 1.7.3h.4l.6.3-1-1c-.4-.2 0-1 .3-1.2.4-.3 1.2 0 1.6.3.9.1 2 .5 2.5.9l3.7 3.3c.8.3 1.5.6 2.1 1 1.4 1.5 3 2.8 4.5 4l1.1.8.6.4 6.6 3.9 24 8.1 1.2.3 7.7 1c5.2.5 10.3.5 15.4 0a106 106 0 0 0 30.1-6 141.3 141.3 0 0 0 29.3-15.4 181.4 181.4 0 0 0 19.8-17.5l.9-.8 5.3-6.3 1.6-1.9c6.6-8.1 12.5-17 17.7-26 5.2-9 9.5-18.5 13-28.3 1-3.5 2-7 2.8-10.6a58.3 58.3 0 0 0 3.3-15.8v-1.4l.1-.7a85.7 85.7 0 0 0 .6-8.4v-8.7l-.1-.8-.3-2-1.3-11.8-.6-4.5-.4-2.6-.2-1.5a99 99 0 0 0-1.7-8l-.3-1.1-1.8-8.8-2-8.6a681.6 681.6 0 0 1-9.8-73.1c-.7-8.6-1-17.3-1.2-26 0-.4.2-.7.6-.9v-1.6c-.1-1.5-.1.3-.2-1.4v-5.3c-5.3.4-8.9 0-14-.2h-1c-4.7-.3-9.4-.8-14-1.6 0 .3-.2.4-.5.5h-1.4l.2.7c0 .3-.1.5-.5.6h-1.3a30.2 30.2 0 0 1-10-1l-3-.8-7.5-2.4c-2.6-.6-5.3-.8-8-.1-3 .7-5.4 2-8.5 1.2l-1.8-.7h-.8c-3.2-.5-6-2.5-9-3.6a5 5 0 0 0-3.2.2l-.3.2-1 .7-1.2 1.5-.6.7a15 15 0 0 1-3.6 3.4 9.1 9.1 0 0 1-6.2 2.6c-1.3 0-2.7-.3-4-.7-5 1.6-10.3 1.9-15.3.4a22.1 22.1 0 0 1-8.3-3c-3.5 1.4-6.9 3.4-10.2 5l-.8.5A22.7 22.7 0 0 1 234 197a139.8 139.8 0 0 1-14.8-1.8l-.7-.1-2.4-.4-2-.4-1 .4c-8 3-16.7 5.4-24.8 3.3a22 22 0 0 1-10-3.9l-1.3-.8h-.1l-.1-.1a11 11 0 0 1-6.5-11.2c-.3-1.5-.3-3 0-4.6l-4.3 5a334.7 334.7 0 0 0-15.7 20.1l-1 1.6c-2.8 3.8-5.3 7.8-7.6 11.8l-7.3 12c-3.2 3.5-6.3 7.2-9.4 11l-1.2 1.5-4.4 5.7a116.5 116.5 0 0 0-13.4 24.3 97.3 97.3 0 0 0-5.2 20.7v1a60 60 0 0 0-.3 3.5l.7.5.7.3.6.1c1 .3 2.5 1 2.1 1.6l-1.9 3.7c.2.2.3.5.2.7l-4 7.4v.2l3.1 1.7c2 1.2 3.5 2.6 4.9 4.2 1.4.9 2.8 1.8 4 2.9a30.5 30.5 0 0 1 6.8 11.3c.3 1 .5 2.1.5 3.3-1.2 8.5-11 2.7-11.2 2a26 26 0 0 0-6.3-12.3l-.1-.1c-2-.9-4-1.8-6-2.4l-1 .1c.3.5.1 1-.6 1.1-3.1.6-6.3.8-9.5.5l-4.9-.7c-2 .8-4 1.8-5.7 3l-.6.4h-.1A38.8 38.8 0 0 0 60.7 341l-.3.7A55.7 55.7 0 0 0 66 380 316 316 0 0 0 76 395.2l3.4 4.5a172 172 0 0 1 6.9 6.8l3.1 1.7 1.3.4c2 1 4.1 1.5 6.4 1.6 3 .2 5.8-.2 8.6-1l.6-.3.4-.1c1.5-1 3-2.2 4.3-3.6.3-.3.8-.3 1.5-.2l1-1.1c.2-.3.6-.3.9 0 1-.2 3.5 1.3 2.8 2l-.3.6 1.3.7c2 .6 5.2 2.7 5 3.3h-.1c-.5 1-1.1 1.8-2 2.4l-.2.2-.6.4c.9.5 1.6 1.1 1.2 1.5l-.5 1 5 6.2c1.7 3.7 3.8 7 6.3 10.2 2 3.5 4.5 6.5 7.5 9.3l.7.7 6.7 4.5 1 .6c.5.3 1.4.7 1 1.5l-.2.2c1.5 1 3 1.9 4.6 2.7h.1c.6.5 1.4 1.2.6 1.7-.7.5-2.6-.8-3.5-1.4l-.6-.1.9.5.4.2c.4.3 2.1 1.4 1 1.9-.7 0-1.2-.1-1.7-.5l-1.8-.9c.2.3.2.6-.3.8a3 3 0 0 1-.5 0c1.2.8 2.4 1.5 3.7 2.1l.2.1c.5.4 1.3 1 .7 1.6-.7.6-2.6-.7-3-1l-1.5-.9a1 1 0 0 1-.4.1l1.3.8.6.4c.8.4 1.9 1 1.5 1.8-.4.7-1.6.1-2.3-.3l-.8-.5-.1-.1v.1c-.5.7-1.4.3-2 0l-.6-.4-2.6-1.6-1.3-.8a82.6 82.6 0 0 1-19.3-15.5c-4.1-4.7-7.3-10.1-10.3-15.6l.2-.6-1-2a29.6 29.6 0 0 1-14.7 0 37.3 37.3 0 0 1-15-6.1l-.7-.6c-1.9-1-3.6-2.2-5.2-3.6a87 87 0 0 1-14.8-16.1l-5.5-7.7a66 66 0 0 1-9.7-26.6 53.5 53.5 0 0 1 0-18.1l-1-.9c0 .3-.2.5-.3.4l-2.3-2.3a53.3 53.3 0 0 1-14-32.6c-.7-5.2 0-10.2.7-15.3 0-.3.2-.5.5-.7l.1-1.2a35.2 35.2 0 0 1-11-25.7c.2-3.2.8-6.4 2-9.3l.2-.3c-5.5-.9-9.9-4.8-13.2-9.6l-.8-.7c-6-5-10-12.2-12.8-19.7a46 46 0 0 1-3.9-13.9v-1a89 89 0 0 1-1.2-23 114.8 114.8 0 0 1-4-21.5v-.5l-.2-1v-.6a139 139 0 0 1 11-62.3l2.2-5.3.7-1.9c8-12.8 20-23.2 30-34.1 3.5-3.8-2.1-9.5-5.6-5.7C16 61.6 8.8 68.6 2.4 76a28.1 28.1 0 0 1-9.3-.8c-4.7-.7-9-2.6-12.8-5.4-5.2-2.4-9.7-7-10.1-13v-1.7c-.5-3 0-6 1.2-8.8a15.2 15.2 0 0 1 5.4-8l.1-.2.7-.6 1-.9a54.8 54.8 0 0 1-3.6-6.9 28.4 28.4 0 0 1-2.2-11.5l-.1-1.5c-.3-4 .2-8.1 1.7-11.8l.3-.9 1-2.5c1.5-3.1 3.6-5.8 6.2-8a25.6 25.6 0 0 1 8-5.3c2.2-1.2 5-2.2 7.2-2.3h.8c.2-5.7 1-12 3.2-17.2 1.3-3.7 3.3-7 6.3-9.5C9-42.6 11.2-44 13.9-45l.5-.2h.1a17 17 0 0 1 7.7-1.6A17.3 17.3 0 0 1 32.8-44l1.5-2.6c2-3.1 4.2-5.8 7-8.3l1-.8 4-3.3c3.2-2.1 6.6-3.8 10.2-4.8 4.1-1.5 8.5-2.2 12.8-2h1.5a38.6 38.6 0 0 1 23.8 10c.8-1 1.7-2 2.8-3l1-.8.7-.7c1.2-1 2.5-2 3.9-2.8 1.5-.9 3.2-1.5 5-1.9 1.7-.6 3.5-1 5.4-1ZM92.8 346.3c.2 0 9.5 3.4 14 5.7h.3c5.3 2.7 8 4.6 12.7 8 .3.3.6.6.6 1 0 4.9-1.2 11-5.3 8.2l-1.8-1-1-.6c-9-5.6-18.5-9.9-28.6-13-.7-.2 4.4-8 5.8-7.5-.8-.3 3.2-.8 3.3-.8Zm95-218.1a4591.5 4591.5 0 0 1-29.5 3 81.9 81.9 0 0 1-23.3-1.4c-1.4 1-2.8 2-4.2 2.8l-15.9 12.1c-10.6 8.4-21 17.3-30.4 27a176.8 176.8 0 0 0-38.2 59.4c-.7.4-1.3 1.2-1.5 2.4-1.5 9-5.8 17.4-7.4 26.4-1.5 9 .5 16.5 6.1 23.6 1.2 1.5 3.7 1.4 5.2.4.3.7 1.8.6 2.4-2.4 2.5-2.7 4.6-5.5 6-9 1-2.6-.7-4.4-2.9-4.7a136.8 136.8 0 0 1 16.2-36.6 151.8 151.8 0 0 1 16.5-20.5l1.2-1.4c.2-.2.5-.2 1 0l1-1.3c.4-.4.8-.2 1 0 .7 0 1.8.6 2.2.8.6.4.8.9.3 1.5l-.3.3c.7.2 1.4.6 1.9 1 1.8.4 4.4 2.1 4 2.7l-2.8 3c.8.5 1.3 1 1.1 1.3A122.8 122.8 0 0 0 64.3 290v.7c-.3 3.5-.3 13-.7 15.3A49.6 49.6 0 0 0 72 309l.8-.3a28.1 28.1 0 0 1 11.6-2h.6l2.1.1v-1.2c-.3 0-.4-.3-.4-.5a66.2 66.2 0 0 1 2.3-26.2 107 107 0 0 1 5.1-15.6c6-14.4 14.6-27.4 23.2-40.4 6.3-9.4 12.2-19 18.8-28.4 5.5-7.9 11.3-15.7 17.5-23a235 235 0 0 1 23.3-24.2c6.7-6 14-11 21.6-15.8.3-.2.8 0 1.2.4l1.2-.8.6-.3c.2-.1.4 0 .6.2l1.5-.8 1.2-.9c-5.7-.2-11.3-.7-16.9-1.2Zm70.5-66.7c-4.5-.9-9-1-13.7-.3-1.9.2-3.8.6-5.7 1 4.3 3.7 7.8 8.5 10 14 2.4 6-7.2 8.6-9.6 2.7-2.3-5.7-6.7-10-12-12.6l-3.3 2a36.4 36.4 0 0 0-10.6 14.3 41.4 41.4 0 0 0-1.5 8c-1 10.3 2 20.4 7 29.3h.3c4.5-2.5 9.3-4.6 14.2-6.3a132.6 132.6 0 0 1 40.1-18l1.2-.3 6.9-1.6 1.4-.2-.2-1.5a43.6 43.6 0 0 0-15.3-27v-.1c-1.7-1-3.5-1.8-5.3-2.4l-.7-.3-3.2-.7Zm-121.9-8.9a161.3 161.3 0 0 0-58.9 5.5l2.3 4.6c3.8 7.7 7.7 15.3 12.3 22.5a108.3 108.3 0 0 0 15.9 19.6c2 1.8 4.3 3.3 6.8 4.6 2 1.4 4 2.7 6.1 3.8l.8.4 7.5 2.9 1.2.3.6.2 1.2.2.8-.5.5-.2c.2-.1.4.1.4.3v.3l1-.6a31.3 31.3 0 0 0 9 2.2h.1v.1h1.1c7.5.8 15.1-.2 22.6-1.5 10.5-1 21-2.3 31.6-3.4.2 0 .3.1.3.3l.7-.1c1-.1 2 1.5 1.3 2l1.5 1.2h.3a43.5 43.5 0 0 1-3.4-8.9l-1-5.2a47.3 47.3 0 0 1-.6-8.5v-2.2l-6-2.1-17.6-2.2a249.4 249.4 0 0 0-22.4 2.1c-.3 0-1-.4-1.4-1l-1.7.2c-.9.1-1.8-1.6-.6-2l1.2-.5.7-.2h-.8c-1 0-2 .2-2.8.3-1.2.1-1-1.4-.1-1.8h.4c-.7-.5-1.3-1.7-.5-2l.2-.1 1.1-.5v-.3l-1.6.2c-.1 0 .6-1 1-1.3l.8-.2c0-.4.7-1.1 1-1.2a102.8 102.8 0 0 1 14.2-3.7c0-.2.2-.3.3-.3a68.4 68.4 0 0 1 32.6 3.7l1 .4 2.8 1.1a40.3 40.3 0 0 1 2.1-6l-1-.5c-.1.4-.6.7-.8.5-7-4.7-14.3-8.6-22-11.7a112.8 112.8 0 0 0-23.8-7.6c-6-1.6-12-2.7-18.3-3.2Zm229 16-2.6 4.2c-4.5 7-10 13.4-16.1 19.1a50 50 0 0 1 12.8 1.6c.2-.2.4-.3.6-.2l.7.5a52.6 52.6 0 0 1 15.5 7v-4.6a82 82 0 0 0-6.3-20.5v-.5c-1.3-2.3-2.9-4.6-4.6-6.7Zm1.3-56.8-6.2 1.5c-3.9.6-7.6 1.6-11.2 3a188 188 0 0 0-14.7 6c-9.3 4.3-18.1 9.7-26.1 16.1l-1.5 1.2a79.2 79.2 0 0 0-5.2 4.9l-5.2 5.6c-2.1 2.3-4.5 4.3-6.5 6.7l-1 1.5 1.1.4c1 .4.8 2.1-.1 1.9l-1-.3c.2.1.3.3.3.4 0 .5-.3 1.2-1 1l-.7-.3-.2 1h.2c.7.2 2 1.3 2 2 .2.5-.2 1-.8 1l-1.3-.6c.3.3.5.6.5.8 0 .5-.4 1.1-1 1a7 7 0 0 1-2.4-1.3c-.2.3-.5.5-.7.4l-.4-.1.3.3.2.2c2.7 3 5.1 6.2 7 9.8l.4-.3 2.8-2.2.3-.3.2-.2-2 .7c.1-.3.6-1 .8-1.1 3-2.6 6-4.8 9.5-6.6a141.6 141.6 0 0 1 24.5-10.2l2.7-.9c.2 0 .3 0 .3.2l.4-.1c.9-.3 2.3 1.2 1.7 1.9l1 .9.2.2h.3c.7-.3 1.9.8 2.6 1.6l.6.6c.4.5 1.3 1.4.2 1.8l-1.2.4c0 .3-.1.5-.5.7l-1.3.4.7.7.4.4c.5.5 1.5 1.5.6 2h-.1l-1.2.4c.1.4 0 .7-.5 1-7.1 2.4-14.2 5.2-21 8.5-5.1 2.8-10.6 5-16.3 6.3-.4.2-1.5-.5-1.9-1.2l-.8.2-.5.1a44 44 0 0 1 2.3 9.8l3.4-.2c7.7-.4 15.6-.2 23.3.7a93 93 0 0 0 11.7-8.2 100.3 100.3 0 0 0 24-31 78 78 0 0 0 8.6-34.8V17.4l-.6-5.7Zm-73.2 67-.8.2.4 1 1-.8c-.2 0-.4-.2-.6-.4Zm71.8-81.2c1.8-.6 3.2-.8 4.1-.3-1.4 0-2.7.2-4 .3Z" fill="#000"/></g></g><g transform="translate(315 248)"><path fill-rule="evenodd" clip-rule="evenodd" d="M146.6 241a40.7 40.7 0 0 1-17.1-13.2c-1.5-2-2-4.2-1.6-6.2a8.9 8.9 0 0 1 9.6-7.2c1.9.3 3.7 1.3 5.2 3.5l.3.4a27 27 0 0 0 10 8.3c3.6 1.8 7.8 2.6 12.1 2.1 8.3-1 14-5.4 20-11.4l2.2-2.3c.5-.8 1.1-1.2 1.9-1.5a4 4 0 0 1 4.6 1.6c.4.7.7 1.5.6 2.5a25.7 25.7 0 0 1-8.5 16.2c-5.1 4.9-12 8.2-18.4 9.4-7.1 1.3-14.4.4-21-2.3Zm24.2-96.6c7.6 4.6 19 15.3 11 26.6-9.6 10-23.4-1.4-30.2-6.6-6.3-4-13.3 6.3-7.5 11 49 36.3 69-29.8 30.5-36.4-4.2-.8-5.8 4-3.8 5.4ZM83 102c.8-10.3 16.6-12.7 18.1-2.4a42 42 0 0 1-4.3 25.9c-4 7.9-14 4.2-14.7-3-1-9.7.3-14 .9-20.5Zm120-4.5c2.2-3 5.4-4.9 9.2-3.8 11.9 3.5 8.4 20.4 4.2 28.6-2.3 4.4-9.6 5.6-12.9 1.6-5.4-6.4-8-19.1-1.1-25.5l.6-1ZM96.6 56.8l1.9-.3c5.8-1 13-2 17.1 2.7 2.2 2.5 3 7 0 9.4-5.1 4.2-10.8 2.6-17 3-5.1.2-10 1-14.9 2.5C73 77 64.2 82.8 55 88.9c-1.2.8-2.4-.7-1.9-1.8a59.3 59.3 0 0 1 26-24.1 64 64 0 0 1 17.5-6.2Zm95.6-4.6 1.4.3c15.7 3.2 36 9.8 43.4 25.1.3 2.2 0 2.7-.3 3-.2.3-.4.7-1.4 1A36 36 0 0 1 226 78l-2.8-1.4a77.7 77.7 0 0 0-10.1-4.3c-7.5-2.4-15.1-4.1-23-5a9.4 9.4 0 0 1-4.5-1.8 7 7 0 0 1-2.6-4 7 7 0 0 1 .8-5.8 7.4 7.4 0 0 1 3.6-3.1c1.5-.6 3.2-.8 4.9-.4Z" fill="#000"/></g><g transform="translate(279 400)"/><g transform="translate(179 343)"/><g transform="translate(203 303)"/></g></g></g></svg>